<mxfile host="app.diagrams.net" modified="2023-07-12T02:56:06.894Z" agent="Mozilla/5.0 (Windows NT 10.0; Win64; x64) AppleWebKit/537.36 (KHTML, like Gecko) Chrome/114.0.0.0 Safari/537.36" etag="DBbjr293CI4FuJbXywQj" version="21.6.1" type="github" pages="4">
  <diagram name="Page-1" id="VaNw7PCbYmfYwVEzfMIy">
    <mxGraphModel dx="1434" dy="764" grid="1" gridSize="10" guides="1" tooltips="1" connect="1" arrows="1" fold="1" page="1" pageScale="1" pageWidth="850" pageHeight="1100" math="0" shadow="0">
      <root>
        <mxCell id="0" />
        <mxCell id="1" parent="0" />
        <mxCell id="xjyN4kji1Cm2nHOvdFwp-1" value="เริ่ม" style="ellipse;whiteSpace=wrap;html=1;" vertex="1" parent="1">
          <mxGeometry x="70" y="40" width="80" height="40" as="geometry" />
        </mxCell>
        <mxCell id="xjyN4kji1Cm2nHOvdFwp-2" value="ตรวจสอบสิทธิ์การใช้งาน" style="rounded=1;whiteSpace=wrap;html=1;" vertex="1" parent="1">
          <mxGeometry x="40" y="120" width="140" height="30" as="geometry" />
        </mxCell>
        <mxCell id="xjyN4kji1Cm2nHOvdFwp-3" value="" style="edgeStyle=orthogonalEdgeStyle;rounded=0;orthogonalLoop=1;jettySize=auto;html=1;" edge="1" parent="1" source="xjyN4kji1Cm2nHOvdFwp-1" target="xjyN4kji1Cm2nHOvdFwp-2">
          <mxGeometry relative="1" as="geometry" />
        </mxCell>
        <mxCell id="xjyN4kji1Cm2nHOvdFwp-4" value="มี ?" style="rhombus;whiteSpace=wrap;html=1;" vertex="1" parent="1">
          <mxGeometry x="80" y="180" width="60" height="60" as="geometry" />
        </mxCell>
        <mxCell id="xjyN4kji1Cm2nHOvdFwp-5" value="" style="edgeStyle=orthogonalEdgeStyle;rounded=0;orthogonalLoop=1;jettySize=auto;html=1;" edge="1" parent="1" source="xjyN4kji1Cm2nHOvdFwp-2" target="xjyN4kji1Cm2nHOvdFwp-4">
          <mxGeometry relative="1" as="geometry" />
        </mxCell>
        <mxCell id="xjyN4kji1Cm2nHOvdFwp-6" style="edgeStyle=orthogonalEdgeStyle;rounded=0;orthogonalLoop=1;jettySize=auto;html=1;entryX=-0.022;entryY=0.676;entryDx=0;entryDy=0;entryPerimeter=0;" edge="1" parent="1" source="xjyN4kji1Cm2nHOvdFwp-4" target="xjyN4kji1Cm2nHOvdFwp-20">
          <mxGeometry relative="1" as="geometry">
            <Array as="points">
              <mxPoint x="110" y="644" />
            </Array>
            <mxPoint x="265" y="750" as="targetPoint" />
          </mxGeometry>
        </mxCell>
        <mxCell id="xjyN4kji1Cm2nHOvdFwp-7" value="ไม่" style="edgeLabel;html=1;align=center;verticalAlign=middle;resizable=0;points=[];" vertex="1" connectable="0" parent="xjyN4kji1Cm2nHOvdFwp-6">
          <mxGeometry x="-0.8925" y="1" relative="1" as="geometry">
            <mxPoint as="offset" />
          </mxGeometry>
        </mxCell>
        <mxCell id="xjyN4kji1Cm2nHOvdFwp-8" value="ตรวจสอบ Account &lt;br&gt;สถานะการใช้งาน" style="rounded=1;whiteSpace=wrap;html=1;" vertex="1" parent="1">
          <mxGeometry x="256.35" y="189" width="170" height="40" as="geometry" />
        </mxCell>
        <mxCell id="xjyN4kji1Cm2nHOvdFwp-9" value="" style="edgeStyle=orthogonalEdgeStyle;rounded=0;orthogonalLoop=1;jettySize=auto;html=1;" edge="1" parent="1" source="xjyN4kji1Cm2nHOvdFwp-4" target="xjyN4kji1Cm2nHOvdFwp-8">
          <mxGeometry relative="1" as="geometry">
            <Array as="points">
              <mxPoint x="220" y="210" />
              <mxPoint x="220" y="210" />
            </Array>
          </mxGeometry>
        </mxCell>
        <mxCell id="xjyN4kji1Cm2nHOvdFwp-10" value="ใช่" style="edgeLabel;html=1;align=center;verticalAlign=middle;resizable=0;points=[];" vertex="1" connectable="0" parent="xjyN4kji1Cm2nHOvdFwp-9">
          <mxGeometry x="-0.7797" y="-1" relative="1" as="geometry">
            <mxPoint as="offset" />
          </mxGeometry>
        </mxCell>
        <mxCell id="xjyN4kji1Cm2nHOvdFwp-11" value="มีใน&lt;br&gt;ระบบ &lt;br&gt;?" style="rhombus;whiteSpace=wrap;html=1;" vertex="1" parent="1">
          <mxGeometry x="303.85" y="268" width="75" height="70" as="geometry" />
        </mxCell>
        <mxCell id="xjyN4kji1Cm2nHOvdFwp-12" value="" style="edgeStyle=orthogonalEdgeStyle;rounded=0;orthogonalLoop=1;jettySize=auto;html=1;" edge="1" parent="1" source="xjyN4kji1Cm2nHOvdFwp-8" target="xjyN4kji1Cm2nHOvdFwp-11">
          <mxGeometry relative="1" as="geometry" />
        </mxCell>
        <mxCell id="xjyN4kji1Cm2nHOvdFwp-13" value="status&lt;br style=&quot;border-color: var(--border-color);&quot;&gt;= 1 ?" style="rhombus;whiteSpace=wrap;html=1;" vertex="1" parent="1">
          <mxGeometry x="311.35" y="388" width="60" height="60" as="geometry" />
        </mxCell>
        <mxCell id="xjyN4kji1Cm2nHOvdFwp-14" value="" style="edgeStyle=orthogonalEdgeStyle;rounded=0;orthogonalLoop=1;jettySize=auto;html=1;" edge="1" parent="1" source="xjyN4kji1Cm2nHOvdFwp-11" target="xjyN4kji1Cm2nHOvdFwp-13">
          <mxGeometry relative="1" as="geometry" />
        </mxCell>
        <mxCell id="xjyN4kji1Cm2nHOvdFwp-15" value="ใช่" style="edgeLabel;html=1;align=center;verticalAlign=middle;resizable=0;points=[];" vertex="1" connectable="0" parent="xjyN4kji1Cm2nHOvdFwp-14">
          <mxGeometry x="-0.3254" y="2" relative="1" as="geometry">
            <mxPoint x="-2" as="offset" />
          </mxGeometry>
        </mxCell>
        <mxCell id="xjyN4kji1Cm2nHOvdFwp-16" value="Locked&lt;br style=&quot;border-color: var(--border-color);&quot;&gt;= 1 ?&amp;nbsp;" style="rhombus;whiteSpace=wrap;html=1;" vertex="1" parent="1">
          <mxGeometry x="311.35" y="518" width="60" height="60" as="geometry" />
        </mxCell>
        <mxCell id="xjyN4kji1Cm2nHOvdFwp-17" value="" style="edgeStyle=orthogonalEdgeStyle;rounded=0;orthogonalLoop=1;jettySize=auto;html=1;" edge="1" parent="1" source="xjyN4kji1Cm2nHOvdFwp-13" target="xjyN4kji1Cm2nHOvdFwp-16">
          <mxGeometry relative="1" as="geometry" />
        </mxCell>
        <mxCell id="xjyN4kji1Cm2nHOvdFwp-18" value="ไม่" style="edgeLabel;html=1;align=center;verticalAlign=middle;resizable=0;points=[];" vertex="1" connectable="0" parent="xjyN4kji1Cm2nHOvdFwp-17">
          <mxGeometry x="-0.3745" relative="1" as="geometry">
            <mxPoint as="offset" />
          </mxGeometry>
        </mxCell>
        <mxCell id="xjyN4kji1Cm2nHOvdFwp-19" style="edgeStyle=orthogonalEdgeStyle;rounded=0;orthogonalLoop=1;jettySize=auto;html=1;entryX=0;entryY=0.5;entryDx=0;entryDy=0;" edge="1" parent="1" source="xjyN4kji1Cm2nHOvdFwp-20" target="xjyN4kji1Cm2nHOvdFwp-64">
          <mxGeometry relative="1" as="geometry">
            <Array as="points">
              <mxPoint x="239" y="1230" />
            </Array>
          </mxGeometry>
        </mxCell>
        <mxCell id="xjyN4kji1Cm2nHOvdFwp-20" value="1" style="ellipse;whiteSpace=wrap;html=1;aspect=fixed;" vertex="1" parent="1">
          <mxGeometry x="213.75" y="610" width="50" height="50" as="geometry" />
        </mxCell>
        <mxCell id="xjyN4kji1Cm2nHOvdFwp-21" style="edgeStyle=orthogonalEdgeStyle;rounded=0;orthogonalLoop=1;jettySize=auto;html=1;" edge="1" parent="1" source="xjyN4kji1Cm2nHOvdFwp-22" target="xjyN4kji1Cm2nHOvdFwp-20">
          <mxGeometry relative="1" as="geometry">
            <Array as="points">
              <mxPoint x="140" y="303" />
              <mxPoint x="140" y="630" />
            </Array>
          </mxGeometry>
        </mxCell>
        <mxCell id="xjyN4kji1Cm2nHOvdFwp-22" value="rerturn Error Code&amp;nbsp;001&lt;span style=&quot;font-size: medium; text-align: start;&quot;&gt;&lt;/span&gt;" style="rounded=1;whiteSpace=wrap;html=1;" vertex="1" parent="1">
          <mxGeometry x="150" y="283" width="77.5" height="40" as="geometry" />
        </mxCell>
        <mxCell id="xjyN4kji1Cm2nHOvdFwp-23" style="edgeStyle=orthogonalEdgeStyle;rounded=0;orthogonalLoop=1;jettySize=auto;html=1;" edge="1" parent="1" source="xjyN4kji1Cm2nHOvdFwp-11" target="xjyN4kji1Cm2nHOvdFwp-22">
          <mxGeometry relative="1" as="geometry">
            <mxPoint x="240.10000000000002" y="408" as="targetPoint" />
          </mxGeometry>
        </mxCell>
        <mxCell id="xjyN4kji1Cm2nHOvdFwp-24" value="ไม่" style="edgeLabel;html=1;align=center;verticalAlign=middle;resizable=0;points=[];" vertex="1" connectable="0" parent="xjyN4kji1Cm2nHOvdFwp-23">
          <mxGeometry x="-0.6573" y="2" relative="1" as="geometry">
            <mxPoint as="offset" />
          </mxGeometry>
        </mxCell>
        <mxCell id="xjyN4kji1Cm2nHOvdFwp-25" style="edgeStyle=orthogonalEdgeStyle;rounded=0;orthogonalLoop=1;jettySize=auto;html=1;entryX=0.5;entryY=0;entryDx=0;entryDy=0;" edge="1" parent="1" source="xjyN4kji1Cm2nHOvdFwp-26" target="xjyN4kji1Cm2nHOvdFwp-20">
          <mxGeometry relative="1" as="geometry" />
        </mxCell>
        <mxCell id="xjyN4kji1Cm2nHOvdFwp-26" value="rerturn Error Code&amp;nbsp;011&lt;span style=&quot;font-size: medium; text-align: start;&quot;&gt;&lt;/span&gt;" style="rounded=1;whiteSpace=wrap;html=1;" vertex="1" parent="1">
          <mxGeometry x="200" y="528" width="77.5" height="40" as="geometry" />
        </mxCell>
        <mxCell id="xjyN4kji1Cm2nHOvdFwp-27" value="" style="edgeStyle=orthogonalEdgeStyle;rounded=0;orthogonalLoop=1;jettySize=auto;html=1;" edge="1" parent="1" source="xjyN4kji1Cm2nHOvdFwp-16" target="xjyN4kji1Cm2nHOvdFwp-26">
          <mxGeometry relative="1" as="geometry" />
        </mxCell>
        <mxCell id="xjyN4kji1Cm2nHOvdFwp-28" value="ใช่" style="edgeLabel;html=1;align=center;verticalAlign=middle;resizable=0;points=[];" vertex="1" connectable="0" parent="xjyN4kji1Cm2nHOvdFwp-27">
          <mxGeometry x="-0.4608" y="1" relative="1" as="geometry">
            <mxPoint as="offset" />
          </mxGeometry>
        </mxCell>
        <mxCell id="xjyN4kji1Cm2nHOvdFwp-29" style="edgeStyle=orthogonalEdgeStyle;rounded=0;orthogonalLoop=1;jettySize=auto;html=1;" edge="1" parent="1" source="xjyN4kji1Cm2nHOvdFwp-30" target="xjyN4kji1Cm2nHOvdFwp-20">
          <mxGeometry relative="1" as="geometry">
            <mxPoint x="240" y="610" as="targetPoint" />
            <Array as="points">
              <mxPoint x="180" y="418" />
              <mxPoint x="180" y="620" />
            </Array>
          </mxGeometry>
        </mxCell>
        <mxCell id="xjyN4kji1Cm2nHOvdFwp-30" value="rerturn Error Code&amp;nbsp;004&lt;span style=&quot;font-size: medium; text-align: start;&quot;&gt;&lt;/span&gt;" style="rounded=1;whiteSpace=wrap;html=1;" vertex="1" parent="1">
          <mxGeometry x="200" y="398" width="77.5" height="40" as="geometry" />
        </mxCell>
        <mxCell id="xjyN4kji1Cm2nHOvdFwp-31" value="" style="edgeStyle=orthogonalEdgeStyle;rounded=0;orthogonalLoop=1;jettySize=auto;html=1;" edge="1" parent="1" source="xjyN4kji1Cm2nHOvdFwp-13" target="xjyN4kji1Cm2nHOvdFwp-30">
          <mxGeometry relative="1" as="geometry" />
        </mxCell>
        <mxCell id="xjyN4kji1Cm2nHOvdFwp-32" value="ใช่" style="edgeLabel;html=1;align=center;verticalAlign=middle;resizable=0;points=[];" vertex="1" connectable="0" parent="xjyN4kji1Cm2nHOvdFwp-31">
          <mxGeometry x="-0.4608" y="2" relative="1" as="geometry">
            <mxPoint as="offset" />
          </mxGeometry>
        </mxCell>
        <mxCell id="xjyN4kji1Cm2nHOvdFwp-33" value="" style="edgeStyle=orthogonalEdgeStyle;rounded=0;orthogonalLoop=1;jettySize=auto;html=1;entryX=0.1;entryY=0.5;entryDx=0;entryDy=0;entryPerimeter=0;" edge="1" parent="1" source="xjyN4kji1Cm2nHOvdFwp-16" target="xjyN4kji1Cm2nHOvdFwp-38">
          <mxGeometry relative="1" as="geometry">
            <mxPoint x="414" y="548" as="targetPoint" />
          </mxGeometry>
        </mxCell>
        <mxCell id="xjyN4kji1Cm2nHOvdFwp-34" value="" style="edgeStyle=orthogonalEdgeStyle;rounded=0;orthogonalLoop=1;jettySize=auto;html=1;" edge="1" parent="1" source="xjyN4kji1Cm2nHOvdFwp-38">
          <mxGeometry relative="1" as="geometry">
            <mxPoint x="530" y="548" as="targetPoint" />
          </mxGeometry>
        </mxCell>
        <mxCell id="xjyN4kji1Cm2nHOvdFwp-35" value="ไม่" style="edgeLabel;html=1;align=center;verticalAlign=middle;resizable=0;points=[];" vertex="1" connectable="0" parent="xjyN4kji1Cm2nHOvdFwp-34">
          <mxGeometry x="-0.3115" y="3" relative="1" as="geometry">
            <mxPoint as="offset" />
          </mxGeometry>
        </mxCell>
        <mxCell id="xjyN4kji1Cm2nHOvdFwp-36" style="edgeStyle=orthogonalEdgeStyle;rounded=0;orthogonalLoop=1;jettySize=auto;html=1;entryX=0.5;entryY=0;entryDx=0;entryDy=0;" edge="1" parent="1" source="xjyN4kji1Cm2nHOvdFwp-38" target="xjyN4kji1Cm2nHOvdFwp-61">
          <mxGeometry relative="1" as="geometry">
            <mxPoint x="447" y="940" as="targetPoint" />
          </mxGeometry>
        </mxCell>
        <mxCell id="xjyN4kji1Cm2nHOvdFwp-37" value="ใช่" style="edgeLabel;html=1;align=center;verticalAlign=middle;resizable=0;points=[];" vertex="1" connectable="0" parent="xjyN4kji1Cm2nHOvdFwp-36">
          <mxGeometry x="-0.3215" y="2" relative="1" as="geometry">
            <mxPoint as="offset" />
          </mxGeometry>
        </mxCell>
        <mxCell id="xjyN4kji1Cm2nHOvdFwp-38" value="Super&lt;br&gt;Admin ?" style="rhombus;whiteSpace=wrap;html=1;" vertex="1" parent="1">
          <mxGeometry x="414" y="512" width="66" height="72" as="geometry" />
        </mxCell>
        <mxCell id="xjyN4kji1Cm2nHOvdFwp-39" value="" style="edgeStyle=orthogonalEdgeStyle;rounded=0;orthogonalLoop=1;jettySize=auto;html=1;" edge="1" parent="1" source="xjyN4kji1Cm2nHOvdFwp-40" target="xjyN4kji1Cm2nHOvdFwp-45">
          <mxGeometry relative="1" as="geometry" />
        </mxCell>
        <mxCell id="xjyN4kji1Cm2nHOvdFwp-40" value="ตรวจสอบสิทธิ์การใช้งาน Company นี้ไหม&lt;span style=&quot;font-size: medium; text-align: start;&quot;&gt;&lt;/span&gt;" style="rounded=1;whiteSpace=wrap;html=1;" vertex="1" parent="1">
          <mxGeometry x="530" y="528" width="110" height="42" as="geometry" />
        </mxCell>
        <mxCell id="xjyN4kji1Cm2nHOvdFwp-41" value="" style="edgeStyle=orthogonalEdgeStyle;rounded=0;orthogonalLoop=1;jettySize=auto;html=1;" edge="1" parent="1" source="xjyN4kji1Cm2nHOvdFwp-45" target="xjyN4kji1Cm2nHOvdFwp-49">
          <mxGeometry relative="1" as="geometry" />
        </mxCell>
        <mxCell id="xjyN4kji1Cm2nHOvdFwp-42" value="ใช่" style="edgeLabel;html=1;align=center;verticalAlign=middle;resizable=0;points=[];" vertex="1" connectable="0" parent="xjyN4kji1Cm2nHOvdFwp-41">
          <mxGeometry x="-0.2859" relative="1" as="geometry">
            <mxPoint as="offset" />
          </mxGeometry>
        </mxCell>
        <mxCell id="xjyN4kji1Cm2nHOvdFwp-43" style="edgeStyle=orthogonalEdgeStyle;rounded=0;orthogonalLoop=1;jettySize=auto;html=1;" edge="1" parent="1" source="xjyN4kji1Cm2nHOvdFwp-45" target="xjyN4kji1Cm2nHOvdFwp-51">
          <mxGeometry relative="1" as="geometry">
            <mxPoint x="680" y="645.9999999999998" as="targetPoint" />
          </mxGeometry>
        </mxCell>
        <mxCell id="xjyN4kji1Cm2nHOvdFwp-44" value="ไม่" style="edgeLabel;html=1;align=center;verticalAlign=middle;resizable=0;points=[];" vertex="1" connectable="0" parent="xjyN4kji1Cm2nHOvdFwp-43">
          <mxGeometry x="-0.0865" y="2" relative="1" as="geometry">
            <mxPoint as="offset" />
          </mxGeometry>
        </mxCell>
        <mxCell id="xjyN4kji1Cm2nHOvdFwp-45" value="มี ?" style="rhombus;whiteSpace=wrap;html=1;" vertex="1" parent="1">
          <mxGeometry x="552" y="610" width="66" height="72" as="geometry" />
        </mxCell>
        <mxCell id="xjyN4kji1Cm2nHOvdFwp-46" value="ใช่" style="edgeStyle=orthogonalEdgeStyle;rounded=0;orthogonalLoop=1;jettySize=auto;html=1;" edge="1" parent="1" source="xjyN4kji1Cm2nHOvdFwp-49" target="xjyN4kji1Cm2nHOvdFwp-55">
          <mxGeometry relative="1" as="geometry" />
        </mxCell>
        <mxCell id="xjyN4kji1Cm2nHOvdFwp-47" value="" style="edgeStyle=orthogonalEdgeStyle;rounded=0;orthogonalLoop=1;jettySize=auto;html=1;" edge="1" parent="1" source="xjyN4kji1Cm2nHOvdFwp-49" target="xjyN4kji1Cm2nHOvdFwp-57">
          <mxGeometry relative="1" as="geometry" />
        </mxCell>
        <mxCell id="xjyN4kji1Cm2nHOvdFwp-48" value="ไม่" style="edgeLabel;html=1;align=center;verticalAlign=middle;resizable=0;points=[];" vertex="1" connectable="0" parent="xjyN4kji1Cm2nHOvdFwp-47">
          <mxGeometry x="-0.1127" relative="1" as="geometry">
            <mxPoint as="offset" />
          </mxGeometry>
        </mxCell>
        <mxCell id="xjyN4kji1Cm2nHOvdFwp-49" value="Company &lt;br&gt;มีในระบบ&lt;br&gt;ไหม ?" style="rhombus;whiteSpace=wrap;html=1;" vertex="1" parent="1">
          <mxGeometry x="540" y="740" width="90" height="80" as="geometry" />
        </mxCell>
        <mxCell id="xjyN4kji1Cm2nHOvdFwp-50" style="edgeStyle=orthogonalEdgeStyle;rounded=0;orthogonalLoop=1;jettySize=auto;html=1;entryX=1;entryY=0.5;entryDx=0;entryDy=0;" edge="1" parent="1" source="xjyN4kji1Cm2nHOvdFwp-51" target="xjyN4kji1Cm2nHOvdFwp-63">
          <mxGeometry relative="1" as="geometry">
            <mxPoint x="780" y="800" as="targetPoint" />
            <Array as="points">
              <mxPoint x="778" y="646" />
              <mxPoint x="778" y="1015" />
            </Array>
          </mxGeometry>
        </mxCell>
        <mxCell id="xjyN4kji1Cm2nHOvdFwp-51" value="rerturn Error Code&amp;nbsp;002&lt;span style=&quot;font-size: medium; text-align: start;&quot;&gt;&lt;/span&gt;" style="rounded=1;whiteSpace=wrap;html=1;" vertex="1" parent="1">
          <mxGeometry x="680" y="626" width="77.5" height="40" as="geometry" />
        </mxCell>
        <mxCell id="xjyN4kji1Cm2nHOvdFwp-52" value="" style="edgeStyle=orthogonalEdgeStyle;rounded=0;orthogonalLoop=1;jettySize=auto;html=1;" edge="1" parent="1" source="xjyN4kji1Cm2nHOvdFwp-55" target="xjyN4kji1Cm2nHOvdFwp-59">
          <mxGeometry relative="1" as="geometry" />
        </mxCell>
        <mxCell id="xjyN4kji1Cm2nHOvdFwp-53" value="ไม่" style="edgeLabel;html=1;align=center;verticalAlign=middle;resizable=0;points=[];" vertex="1" connectable="0" parent="xjyN4kji1Cm2nHOvdFwp-52">
          <mxGeometry x="-0.2152" y="2" relative="1" as="geometry">
            <mxPoint as="offset" />
          </mxGeometry>
        </mxCell>
        <mxCell id="xjyN4kji1Cm2nHOvdFwp-54" style="edgeStyle=orthogonalEdgeStyle;rounded=0;orthogonalLoop=1;jettySize=auto;html=1;entryX=1;entryY=0.5;entryDx=0;entryDy=0;" edge="1" parent="1" source="xjyN4kji1Cm2nHOvdFwp-55" target="xjyN4kji1Cm2nHOvdFwp-61">
          <mxGeometry relative="1" as="geometry">
            <Array as="points">
              <mxPoint x="585" y="980" />
            </Array>
          </mxGeometry>
        </mxCell>
        <mxCell id="xjyN4kji1Cm2nHOvdFwp-55" value="Company &lt;br&gt;Active ?" style="rhombus;whiteSpace=wrap;html=1;" vertex="1" parent="1">
          <mxGeometry x="540" y="860" width="90" height="80" as="geometry" />
        </mxCell>
        <mxCell id="xjyN4kji1Cm2nHOvdFwp-56" style="edgeStyle=orthogonalEdgeStyle;rounded=0;orthogonalLoop=1;jettySize=auto;html=1;entryX=1;entryY=0;entryDx=0;entryDy=0;" edge="1" parent="1" source="xjyN4kji1Cm2nHOvdFwp-57" target="xjyN4kji1Cm2nHOvdFwp-63">
          <mxGeometry relative="1" as="geometry">
            <Array as="points">
              <mxPoint x="770" y="780" />
              <mxPoint x="770" y="997" />
            </Array>
          </mxGeometry>
        </mxCell>
        <mxCell id="xjyN4kji1Cm2nHOvdFwp-57" value="rerturn Error Code&amp;nbsp;007&lt;span style=&quot;font-size: medium; text-align: start;&quot;&gt;&lt;/span&gt;" style="rounded=1;whiteSpace=wrap;html=1;" vertex="1" parent="1">
          <mxGeometry x="680" y="760" width="77.5" height="40" as="geometry" />
        </mxCell>
        <mxCell id="xjyN4kji1Cm2nHOvdFwp-58" style="edgeStyle=orthogonalEdgeStyle;rounded=0;orthogonalLoop=1;jettySize=auto;html=1;" edge="1" parent="1" source="xjyN4kji1Cm2nHOvdFwp-59" target="xjyN4kji1Cm2nHOvdFwp-63">
          <mxGeometry relative="1" as="geometry" />
        </mxCell>
        <mxCell id="xjyN4kji1Cm2nHOvdFwp-59" value="rerturn Error Code&amp;nbsp;051&lt;span style=&quot;font-size: medium; text-align: start;&quot;&gt;&lt;/span&gt;" style="rounded=1;whiteSpace=wrap;html=1;" vertex="1" parent="1">
          <mxGeometry x="680" y="880" width="77.5" height="40" as="geometry" />
        </mxCell>
        <mxCell id="xjyN4kji1Cm2nHOvdFwp-60" value="" style="edgeStyle=orthogonalEdgeStyle;rounded=0;orthogonalLoop=1;jettySize=auto;html=1;" edge="1" parent="1" source="xjyN4kji1Cm2nHOvdFwp-61" target="xjyN4kji1Cm2nHOvdFwp-66">
          <mxGeometry relative="1" as="geometry" />
        </mxCell>
        <mxCell id="xjyN4kji1Cm2nHOvdFwp-61" value="ดึงรายละเอียดใน&lt;br&gt;หัวข้อการกำกับดูแลกิจการ" style="rounded=1;whiteSpace=wrap;html=1;" vertex="1" parent="1">
          <mxGeometry x="387" y="950" width="120" height="40" as="geometry" />
        </mxCell>
        <mxCell id="xjyN4kji1Cm2nHOvdFwp-62" style="edgeStyle=orthogonalEdgeStyle;rounded=0;orthogonalLoop=1;jettySize=auto;html=1;" edge="1" parent="1" source="xjyN4kji1Cm2nHOvdFwp-63" target="xjyN4kji1Cm2nHOvdFwp-64">
          <mxGeometry relative="1" as="geometry">
            <Array as="points">
              <mxPoint x="719" y="1230" />
            </Array>
          </mxGeometry>
        </mxCell>
        <mxCell id="xjyN4kji1Cm2nHOvdFwp-63" value="2" style="ellipse;whiteSpace=wrap;html=1;aspect=fixed;" vertex="1" parent="1">
          <mxGeometry x="693.75" y="990" width="50" height="50" as="geometry" />
        </mxCell>
        <mxCell id="xjyN4kji1Cm2nHOvdFwp-64" value="สิ้นสุด" style="ellipse;whiteSpace=wrap;html=1;" vertex="1" parent="1">
          <mxGeometry x="395.5" y="1200" width="103" height="60" as="geometry" />
        </mxCell>
        <mxCell id="xjyN4kji1Cm2nHOvdFwp-65" style="edgeStyle=orthogonalEdgeStyle;rounded=0;orthogonalLoop=1;jettySize=auto;html=1;" edge="1" parent="1" source="xjyN4kji1Cm2nHOvdFwp-66" target="xjyN4kji1Cm2nHOvdFwp-64">
          <mxGeometry relative="1" as="geometry">
            <Array as="points">
              <mxPoint x="447" y="1140" />
              <mxPoint x="447" y="1140" />
            </Array>
          </mxGeometry>
        </mxCell>
        <mxCell id="xjyN4kji1Cm2nHOvdFwp-66" value="ส่งกลับรายละเอียดใน&lt;br&gt;หัวข้อการกำกับดูแลกิจการ" style="rounded=1;whiteSpace=wrap;html=1;" vertex="1" parent="1">
          <mxGeometry x="387" y="1060" width="120" height="40" as="geometry" />
        </mxCell>
      </root>
    </mxGraphModel>
  </diagram>
  <diagram id="hYJthrsLKViwTWegKw2b" name="Page-2">
    <mxGraphModel dx="1434" dy="764" grid="1" gridSize="10" guides="1" tooltips="1" connect="1" arrows="1" fold="1" page="1" pageScale="1" pageWidth="850" pageHeight="1100" math="0" shadow="0">
      <root>
        <mxCell id="0" />
        <mxCell id="1" parent="0" />
        <mxCell id="RHlCor5PGLr7fR1qlek2-1" value="เริ่ม" style="ellipse;whiteSpace=wrap;html=1;" vertex="1" parent="1">
          <mxGeometry x="75" y="20" width="80" height="40" as="geometry" />
        </mxCell>
        <mxCell id="RHlCor5PGLr7fR1qlek2-2" value="ตรวจสอบสิทธิ์การใช้งาน" style="rounded=1;whiteSpace=wrap;html=1;" vertex="1" parent="1">
          <mxGeometry x="45" y="100" width="140" height="30" as="geometry" />
        </mxCell>
        <mxCell id="RHlCor5PGLr7fR1qlek2-3" value="" style="edgeStyle=orthogonalEdgeStyle;rounded=0;orthogonalLoop=1;jettySize=auto;html=1;" edge="1" parent="1" source="RHlCor5PGLr7fR1qlek2-1" target="RHlCor5PGLr7fR1qlek2-2">
          <mxGeometry relative="1" as="geometry" />
        </mxCell>
        <mxCell id="RHlCor5PGLr7fR1qlek2-4" value="มี ?" style="rhombus;whiteSpace=wrap;html=1;" vertex="1" parent="1">
          <mxGeometry x="85" y="160" width="60" height="60" as="geometry" />
        </mxCell>
        <mxCell id="RHlCor5PGLr7fR1qlek2-5" value="" style="edgeStyle=orthogonalEdgeStyle;rounded=0;orthogonalLoop=1;jettySize=auto;html=1;" edge="1" parent="1" source="RHlCor5PGLr7fR1qlek2-2" target="RHlCor5PGLr7fR1qlek2-4">
          <mxGeometry relative="1" as="geometry" />
        </mxCell>
        <mxCell id="RHlCor5PGLr7fR1qlek2-6" style="edgeStyle=orthogonalEdgeStyle;rounded=0;orthogonalLoop=1;jettySize=auto;html=1;entryX=-0.022;entryY=0.676;entryDx=0;entryDy=0;entryPerimeter=0;" edge="1" parent="1" source="RHlCor5PGLr7fR1qlek2-4" target="RHlCor5PGLr7fR1qlek2-19">
          <mxGeometry relative="1" as="geometry">
            <Array as="points">
              <mxPoint x="115" y="624" />
            </Array>
            <mxPoint x="270" y="730" as="targetPoint" />
          </mxGeometry>
        </mxCell>
        <mxCell id="RHlCor5PGLr7fR1qlek2-7" value="ไม่" style="edgeLabel;html=1;align=center;verticalAlign=middle;resizable=0;points=[];" vertex="1" connectable="0" parent="RHlCor5PGLr7fR1qlek2-6">
          <mxGeometry x="-0.8925" y="1" relative="1" as="geometry">
            <mxPoint as="offset" />
          </mxGeometry>
        </mxCell>
        <mxCell id="RHlCor5PGLr7fR1qlek2-8" value="ตรวจสอบ Account &lt;br&gt;สถานะการใช้งาน" style="rounded=1;whiteSpace=wrap;html=1;" vertex="1" parent="1">
          <mxGeometry x="261.35" y="169" width="170" height="40" as="geometry" />
        </mxCell>
        <mxCell id="RHlCor5PGLr7fR1qlek2-9" value="" style="edgeStyle=orthogonalEdgeStyle;rounded=0;orthogonalLoop=1;jettySize=auto;html=1;" edge="1" parent="1" source="RHlCor5PGLr7fR1qlek2-4" target="RHlCor5PGLr7fR1qlek2-8">
          <mxGeometry relative="1" as="geometry">
            <Array as="points">
              <mxPoint x="225" y="190" />
              <mxPoint x="225" y="190" />
            </Array>
          </mxGeometry>
        </mxCell>
        <mxCell id="RHlCor5PGLr7fR1qlek2-10" value="ใช่" style="edgeLabel;html=1;align=center;verticalAlign=middle;resizable=0;points=[];" vertex="1" connectable="0" parent="RHlCor5PGLr7fR1qlek2-9">
          <mxGeometry x="-0.7797" y="-1" relative="1" as="geometry">
            <mxPoint as="offset" />
          </mxGeometry>
        </mxCell>
        <mxCell id="RHlCor5PGLr7fR1qlek2-11" value="มีใน&lt;br&gt;ระบบ &lt;br&gt;?" style="rhombus;whiteSpace=wrap;html=1;" vertex="1" parent="1">
          <mxGeometry x="308.85" y="248" width="75" height="70" as="geometry" />
        </mxCell>
        <mxCell id="RHlCor5PGLr7fR1qlek2-12" value="" style="edgeStyle=orthogonalEdgeStyle;rounded=0;orthogonalLoop=1;jettySize=auto;html=1;" edge="1" parent="1" source="RHlCor5PGLr7fR1qlek2-8" target="RHlCor5PGLr7fR1qlek2-11">
          <mxGeometry relative="1" as="geometry" />
        </mxCell>
        <mxCell id="RHlCor5PGLr7fR1qlek2-13" value="status&lt;br style=&quot;border-color: var(--border-color);&quot;&gt;= 1 ?" style="rhombus;whiteSpace=wrap;html=1;" vertex="1" parent="1">
          <mxGeometry x="316.35" y="368" width="60" height="60" as="geometry" />
        </mxCell>
        <mxCell id="RHlCor5PGLr7fR1qlek2-14" value="" style="edgeStyle=orthogonalEdgeStyle;rounded=0;orthogonalLoop=1;jettySize=auto;html=1;" edge="1" parent="1" source="RHlCor5PGLr7fR1qlek2-11" target="RHlCor5PGLr7fR1qlek2-13">
          <mxGeometry relative="1" as="geometry" />
        </mxCell>
        <mxCell id="RHlCor5PGLr7fR1qlek2-15" value="ใช่" style="edgeLabel;html=1;align=center;verticalAlign=middle;resizable=0;points=[];" vertex="1" connectable="0" parent="RHlCor5PGLr7fR1qlek2-14">
          <mxGeometry x="-0.3254" y="2" relative="1" as="geometry">
            <mxPoint x="-2" as="offset" />
          </mxGeometry>
        </mxCell>
        <mxCell id="RHlCor5PGLr7fR1qlek2-16" value="Locked&lt;br style=&quot;border-color: var(--border-color);&quot;&gt;= 1 ?&amp;nbsp;" style="rhombus;whiteSpace=wrap;html=1;" vertex="1" parent="1">
          <mxGeometry x="316.35" y="498" width="60" height="60" as="geometry" />
        </mxCell>
        <mxCell id="RHlCor5PGLr7fR1qlek2-17" value="" style="edgeStyle=orthogonalEdgeStyle;rounded=0;orthogonalLoop=1;jettySize=auto;html=1;" edge="1" parent="1" source="RHlCor5PGLr7fR1qlek2-13" target="RHlCor5PGLr7fR1qlek2-16">
          <mxGeometry relative="1" as="geometry" />
        </mxCell>
        <mxCell id="RHlCor5PGLr7fR1qlek2-18" value="ไม่" style="edgeLabel;html=1;align=center;verticalAlign=middle;resizable=0;points=[];" vertex="1" connectable="0" parent="RHlCor5PGLr7fR1qlek2-17">
          <mxGeometry x="-0.3745" relative="1" as="geometry">
            <mxPoint as="offset" />
          </mxGeometry>
        </mxCell>
        <mxCell id="RHlCor5PGLr7fR1qlek2-19" value="1" style="ellipse;whiteSpace=wrap;html=1;aspect=fixed;" vertex="1" parent="1">
          <mxGeometry x="218.75" y="590" width="50" height="50" as="geometry" />
        </mxCell>
        <mxCell id="RHlCor5PGLr7fR1qlek2-20" style="edgeStyle=orthogonalEdgeStyle;rounded=0;orthogonalLoop=1;jettySize=auto;html=1;" edge="1" parent="1" source="RHlCor5PGLr7fR1qlek2-21" target="RHlCor5PGLr7fR1qlek2-19">
          <mxGeometry relative="1" as="geometry">
            <Array as="points">
              <mxPoint x="145" y="283" />
              <mxPoint x="145" y="610" />
            </Array>
          </mxGeometry>
        </mxCell>
        <mxCell id="RHlCor5PGLr7fR1qlek2-21" value="rerturn Error Code&amp;nbsp;001&lt;span style=&quot;font-size: medium; text-align: start;&quot;&gt;&lt;/span&gt;" style="rounded=1;whiteSpace=wrap;html=1;" vertex="1" parent="1">
          <mxGeometry x="155" y="263" width="77.5" height="40" as="geometry" />
        </mxCell>
        <mxCell id="RHlCor5PGLr7fR1qlek2-22" style="edgeStyle=orthogonalEdgeStyle;rounded=0;orthogonalLoop=1;jettySize=auto;html=1;" edge="1" parent="1" source="RHlCor5PGLr7fR1qlek2-11" target="RHlCor5PGLr7fR1qlek2-21">
          <mxGeometry relative="1" as="geometry">
            <mxPoint x="245.10000000000002" y="388" as="targetPoint" />
          </mxGeometry>
        </mxCell>
        <mxCell id="RHlCor5PGLr7fR1qlek2-23" value="ไม่" style="edgeLabel;html=1;align=center;verticalAlign=middle;resizable=0;points=[];" vertex="1" connectable="0" parent="RHlCor5PGLr7fR1qlek2-22">
          <mxGeometry x="-0.6573" y="2" relative="1" as="geometry">
            <mxPoint as="offset" />
          </mxGeometry>
        </mxCell>
        <mxCell id="RHlCor5PGLr7fR1qlek2-24" style="edgeStyle=orthogonalEdgeStyle;rounded=0;orthogonalLoop=1;jettySize=auto;html=1;entryX=0.5;entryY=0;entryDx=0;entryDy=0;" edge="1" parent="1" source="RHlCor5PGLr7fR1qlek2-25" target="RHlCor5PGLr7fR1qlek2-19">
          <mxGeometry relative="1" as="geometry" />
        </mxCell>
        <mxCell id="RHlCor5PGLr7fR1qlek2-25" value="rerturn Error Code&amp;nbsp;011&lt;span style=&quot;font-size: medium; text-align: start;&quot;&gt;&lt;/span&gt;" style="rounded=1;whiteSpace=wrap;html=1;" vertex="1" parent="1">
          <mxGeometry x="205" y="508" width="77.5" height="40" as="geometry" />
        </mxCell>
        <mxCell id="RHlCor5PGLr7fR1qlek2-26" value="" style="edgeStyle=orthogonalEdgeStyle;rounded=0;orthogonalLoop=1;jettySize=auto;html=1;" edge="1" parent="1" source="RHlCor5PGLr7fR1qlek2-16" target="RHlCor5PGLr7fR1qlek2-25">
          <mxGeometry relative="1" as="geometry" />
        </mxCell>
        <mxCell id="RHlCor5PGLr7fR1qlek2-27" value="ใช่" style="edgeLabel;html=1;align=center;verticalAlign=middle;resizable=0;points=[];" vertex="1" connectable="0" parent="RHlCor5PGLr7fR1qlek2-26">
          <mxGeometry x="-0.4608" y="1" relative="1" as="geometry">
            <mxPoint as="offset" />
          </mxGeometry>
        </mxCell>
        <mxCell id="RHlCor5PGLr7fR1qlek2-28" style="edgeStyle=orthogonalEdgeStyle;rounded=0;orthogonalLoop=1;jettySize=auto;html=1;" edge="1" parent="1" source="RHlCor5PGLr7fR1qlek2-29" target="RHlCor5PGLr7fR1qlek2-19">
          <mxGeometry relative="1" as="geometry">
            <mxPoint x="245" y="590" as="targetPoint" />
            <Array as="points">
              <mxPoint x="185" y="398" />
              <mxPoint x="185" y="600" />
            </Array>
          </mxGeometry>
        </mxCell>
        <mxCell id="RHlCor5PGLr7fR1qlek2-29" value="rerturn Error Code&amp;nbsp;004&lt;span style=&quot;font-size: medium; text-align: start;&quot;&gt;&lt;/span&gt;" style="rounded=1;whiteSpace=wrap;html=1;" vertex="1" parent="1">
          <mxGeometry x="205" y="378" width="77.5" height="40" as="geometry" />
        </mxCell>
        <mxCell id="RHlCor5PGLr7fR1qlek2-30" value="" style="edgeStyle=orthogonalEdgeStyle;rounded=0;orthogonalLoop=1;jettySize=auto;html=1;" edge="1" parent="1" source="RHlCor5PGLr7fR1qlek2-13" target="RHlCor5PGLr7fR1qlek2-29">
          <mxGeometry relative="1" as="geometry" />
        </mxCell>
        <mxCell id="RHlCor5PGLr7fR1qlek2-31" value="ใช่" style="edgeLabel;html=1;align=center;verticalAlign=middle;resizable=0;points=[];" vertex="1" connectable="0" parent="RHlCor5PGLr7fR1qlek2-30">
          <mxGeometry x="-0.4608" y="2" relative="1" as="geometry">
            <mxPoint as="offset" />
          </mxGeometry>
        </mxCell>
        <mxCell id="RHlCor5PGLr7fR1qlek2-32" value="" style="edgeStyle=orthogonalEdgeStyle;rounded=0;orthogonalLoop=1;jettySize=auto;html=1;entryX=0.1;entryY=0.5;entryDx=0;entryDy=0;entryPerimeter=0;" edge="1" parent="1" source="RHlCor5PGLr7fR1qlek2-16" target="RHlCor5PGLr7fR1qlek2-35">
          <mxGeometry relative="1" as="geometry">
            <mxPoint x="419" y="528" as="targetPoint" />
          </mxGeometry>
        </mxCell>
        <mxCell id="RHlCor5PGLr7fR1qlek2-33" value="" style="edgeStyle=orthogonalEdgeStyle;rounded=0;orthogonalLoop=1;jettySize=auto;html=1;" edge="1" parent="1" source="RHlCor5PGLr7fR1qlek2-35">
          <mxGeometry relative="1" as="geometry">
            <mxPoint x="535" y="528" as="targetPoint" />
          </mxGeometry>
        </mxCell>
        <mxCell id="RHlCor5PGLr7fR1qlek2-34" value="ไม่" style="edgeLabel;html=1;align=center;verticalAlign=middle;resizable=0;points=[];" vertex="1" connectable="0" parent="RHlCor5PGLr7fR1qlek2-33">
          <mxGeometry x="-0.3115" y="3" relative="1" as="geometry">
            <mxPoint as="offset" />
          </mxGeometry>
        </mxCell>
        <mxCell id="RHlCor5PGLr7fR1qlek2-35" value="Super&lt;br&gt;Admin ?" style="rhombus;whiteSpace=wrap;html=1;" vertex="1" parent="1">
          <mxGeometry x="419" y="492" width="66" height="72" as="geometry" />
        </mxCell>
        <mxCell id="RHlCor5PGLr7fR1qlek2-36" value="ตรวจสอบสิทธิ์การใช้งาน Company นี้ไหม&lt;span style=&quot;font-size: medium; text-align: start;&quot;&gt;&lt;/span&gt;" style="rounded=1;whiteSpace=wrap;html=1;" vertex="1" parent="1">
          <mxGeometry x="535" y="508" width="110" height="42" as="geometry" />
        </mxCell>
        <mxCell id="RHlCor5PGLr7fR1qlek2-37" value="มี ?" style="rhombus;whiteSpace=wrap;html=1;" vertex="1" parent="1">
          <mxGeometry x="557" y="590" width="66" height="72" as="geometry" />
        </mxCell>
        <mxCell id="RHlCor5PGLr7fR1qlek2-38" value="" style="edgeStyle=orthogonalEdgeStyle;rounded=0;orthogonalLoop=1;jettySize=auto;html=1;" edge="1" parent="1" source="RHlCor5PGLr7fR1qlek2-36" target="RHlCor5PGLr7fR1qlek2-37">
          <mxGeometry relative="1" as="geometry" />
        </mxCell>
        <mxCell id="RHlCor5PGLr7fR1qlek2-39" value="Company &lt;br&gt;มีในระบบ&lt;br&gt;ไหม ?" style="rhombus;whiteSpace=wrap;html=1;" vertex="1" parent="1">
          <mxGeometry x="545" y="720" width="90" height="80" as="geometry" />
        </mxCell>
        <mxCell id="RHlCor5PGLr7fR1qlek2-40" value="" style="edgeStyle=orthogonalEdgeStyle;rounded=0;orthogonalLoop=1;jettySize=auto;html=1;" edge="1" parent="1" source="RHlCor5PGLr7fR1qlek2-37" target="RHlCor5PGLr7fR1qlek2-39">
          <mxGeometry relative="1" as="geometry" />
        </mxCell>
        <mxCell id="RHlCor5PGLr7fR1qlek2-41" value="ใช่" style="edgeLabel;html=1;align=center;verticalAlign=middle;resizable=0;points=[];" vertex="1" connectable="0" parent="RHlCor5PGLr7fR1qlek2-40">
          <mxGeometry x="-0.2859" relative="1" as="geometry">
            <mxPoint as="offset" />
          </mxGeometry>
        </mxCell>
        <mxCell id="RHlCor5PGLr7fR1qlek2-42" value="rerturn Error Code&amp;nbsp;002&lt;span style=&quot;font-size: medium; text-align: start;&quot;&gt;&lt;/span&gt;" style="rounded=1;whiteSpace=wrap;html=1;" vertex="1" parent="1">
          <mxGeometry x="685" y="606" width="77.5" height="40" as="geometry" />
        </mxCell>
        <mxCell id="RHlCor5PGLr7fR1qlek2-43" style="edgeStyle=orthogonalEdgeStyle;rounded=0;orthogonalLoop=1;jettySize=auto;html=1;" edge="1" parent="1" source="RHlCor5PGLr7fR1qlek2-37" target="RHlCor5PGLr7fR1qlek2-42">
          <mxGeometry relative="1" as="geometry">
            <mxPoint x="685" y="625.9999999999998" as="targetPoint" />
          </mxGeometry>
        </mxCell>
        <mxCell id="RHlCor5PGLr7fR1qlek2-44" value="ไม่" style="edgeLabel;html=1;align=center;verticalAlign=middle;resizable=0;points=[];" vertex="1" connectable="0" parent="RHlCor5PGLr7fR1qlek2-43">
          <mxGeometry x="-0.0865" y="2" relative="1" as="geometry">
            <mxPoint as="offset" />
          </mxGeometry>
        </mxCell>
        <mxCell id="RHlCor5PGLr7fR1qlek2-45" value="Company &lt;br&gt;Active ?" style="rhombus;whiteSpace=wrap;html=1;" vertex="1" parent="1">
          <mxGeometry x="545" y="840" width="90" height="80" as="geometry" />
        </mxCell>
        <mxCell id="RHlCor5PGLr7fR1qlek2-46" value="ใช่" style="edgeStyle=orthogonalEdgeStyle;rounded=0;orthogonalLoop=1;jettySize=auto;html=1;" edge="1" parent="1" source="RHlCor5PGLr7fR1qlek2-39" target="RHlCor5PGLr7fR1qlek2-45">
          <mxGeometry relative="1" as="geometry" />
        </mxCell>
        <mxCell id="RHlCor5PGLr7fR1qlek2-47" value="rerturn Error Code&amp;nbsp;007&lt;span style=&quot;font-size: medium; text-align: start;&quot;&gt;&lt;/span&gt;" style="rounded=1;whiteSpace=wrap;html=1;" vertex="1" parent="1">
          <mxGeometry x="685" y="740" width="77.5" height="40" as="geometry" />
        </mxCell>
        <mxCell id="RHlCor5PGLr7fR1qlek2-48" value="" style="edgeStyle=orthogonalEdgeStyle;rounded=0;orthogonalLoop=1;jettySize=auto;html=1;" edge="1" parent="1" source="RHlCor5PGLr7fR1qlek2-39" target="RHlCor5PGLr7fR1qlek2-47">
          <mxGeometry relative="1" as="geometry" />
        </mxCell>
        <mxCell id="RHlCor5PGLr7fR1qlek2-49" value="ไม่" style="edgeLabel;html=1;align=center;verticalAlign=middle;resizable=0;points=[];" vertex="1" connectable="0" parent="RHlCor5PGLr7fR1qlek2-48">
          <mxGeometry x="-0.1127" relative="1" as="geometry">
            <mxPoint as="offset" />
          </mxGeometry>
        </mxCell>
        <mxCell id="RHlCor5PGLr7fR1qlek2-50" value="rerturn Error Code&amp;nbsp;051&lt;span style=&quot;font-size: medium; text-align: start;&quot;&gt;&lt;/span&gt;" style="rounded=1;whiteSpace=wrap;html=1;" vertex="1" parent="1">
          <mxGeometry x="685" y="860" width="77.5" height="40" as="geometry" />
        </mxCell>
        <mxCell id="RHlCor5PGLr7fR1qlek2-51" value="" style="edgeStyle=orthogonalEdgeStyle;rounded=0;orthogonalLoop=1;jettySize=auto;html=1;" edge="1" parent="1" source="RHlCor5PGLr7fR1qlek2-45" target="RHlCor5PGLr7fR1qlek2-50">
          <mxGeometry relative="1" as="geometry" />
        </mxCell>
        <mxCell id="RHlCor5PGLr7fR1qlek2-52" value="ไม่" style="edgeLabel;html=1;align=center;verticalAlign=middle;resizable=0;points=[];" vertex="1" connectable="0" parent="RHlCor5PGLr7fR1qlek2-51">
          <mxGeometry x="-0.2152" y="2" relative="1" as="geometry">
            <mxPoint as="offset" />
          </mxGeometry>
        </mxCell>
        <mxCell id="RHlCor5PGLr7fR1qlek2-53" value="" style="edgeStyle=orthogonalEdgeStyle;rounded=0;orthogonalLoop=1;jettySize=auto;html=1;" edge="1" parent="1" source="RHlCor5PGLr7fR1qlek2-54" target="RHlCor5PGLr7fR1qlek2-71">
          <mxGeometry relative="1" as="geometry" />
        </mxCell>
        <mxCell id="RHlCor5PGLr7fR1qlek2-54" value="ดึงหัวข้อการกำกับดูแลกิจการ" style="rounded=1;whiteSpace=wrap;html=1;" vertex="1" parent="1">
          <mxGeometry x="392" y="860" width="120" height="40" as="geometry" />
        </mxCell>
        <mxCell id="RHlCor5PGLr7fR1qlek2-55" style="edgeStyle=orthogonalEdgeStyle;rounded=0;orthogonalLoop=1;jettySize=auto;html=1;entryX=0.5;entryY=0;entryDx=0;entryDy=0;" edge="1" parent="1" source="RHlCor5PGLr7fR1qlek2-35" target="RHlCor5PGLr7fR1qlek2-54">
          <mxGeometry relative="1" as="geometry">
            <mxPoint x="452" y="920" as="targetPoint" />
          </mxGeometry>
        </mxCell>
        <mxCell id="RHlCor5PGLr7fR1qlek2-56" value="ใช่" style="edgeLabel;html=1;align=center;verticalAlign=middle;resizable=0;points=[];" vertex="1" connectable="0" parent="RHlCor5PGLr7fR1qlek2-55">
          <mxGeometry x="-0.3215" y="2" relative="1" as="geometry">
            <mxPoint as="offset" />
          </mxGeometry>
        </mxCell>
        <mxCell id="RHlCor5PGLr7fR1qlek2-57" style="edgeStyle=orthogonalEdgeStyle;rounded=0;orthogonalLoop=1;jettySize=auto;html=1;entryX=1;entryY=0.5;entryDx=0;entryDy=0;" edge="1" parent="1" source="RHlCor5PGLr7fR1qlek2-45" target="RHlCor5PGLr7fR1qlek2-54">
          <mxGeometry relative="1" as="geometry">
            <Array as="points">
              <mxPoint x="512" y="880" />
            </Array>
          </mxGeometry>
        </mxCell>
        <mxCell id="RHlCor5PGLr7fR1qlek2-58" value="2" style="ellipse;whiteSpace=wrap;html=1;aspect=fixed;" vertex="1" parent="1">
          <mxGeometry x="698.75" y="970" width="50" height="50" as="geometry" />
        </mxCell>
        <mxCell id="RHlCor5PGLr7fR1qlek2-59" style="edgeStyle=orthogonalEdgeStyle;rounded=0;orthogonalLoop=1;jettySize=auto;html=1;entryX=1;entryY=0.5;entryDx=0;entryDy=0;" edge="1" parent="1" source="RHlCor5PGLr7fR1qlek2-42" target="RHlCor5PGLr7fR1qlek2-58">
          <mxGeometry relative="1" as="geometry">
            <mxPoint x="785" y="780" as="targetPoint" />
            <Array as="points">
              <mxPoint x="783" y="626" />
              <mxPoint x="783" y="995" />
            </Array>
          </mxGeometry>
        </mxCell>
        <mxCell id="RHlCor5PGLr7fR1qlek2-60" style="edgeStyle=orthogonalEdgeStyle;rounded=0;orthogonalLoop=1;jettySize=auto;html=1;entryX=1;entryY=0;entryDx=0;entryDy=0;" edge="1" parent="1" source="RHlCor5PGLr7fR1qlek2-47" target="RHlCor5PGLr7fR1qlek2-58">
          <mxGeometry relative="1" as="geometry">
            <Array as="points">
              <mxPoint x="775" y="760" />
              <mxPoint x="775" y="977" />
            </Array>
          </mxGeometry>
        </mxCell>
        <mxCell id="RHlCor5PGLr7fR1qlek2-61" style="edgeStyle=orthogonalEdgeStyle;rounded=0;orthogonalLoop=1;jettySize=auto;html=1;" edge="1" parent="1" source="RHlCor5PGLr7fR1qlek2-50" target="RHlCor5PGLr7fR1qlek2-58">
          <mxGeometry relative="1" as="geometry" />
        </mxCell>
        <mxCell id="RHlCor5PGLr7fR1qlek2-62" value="สิ้นสุด" style="ellipse;whiteSpace=wrap;html=1;" vertex="1" parent="1">
          <mxGeometry x="367" y="1070" width="103" height="60" as="geometry" />
        </mxCell>
        <mxCell id="RHlCor5PGLr7fR1qlek2-63" style="edgeStyle=orthogonalEdgeStyle;rounded=0;orthogonalLoop=1;jettySize=auto;html=1;entryX=0;entryY=0.5;entryDx=0;entryDy=0;" edge="1" parent="1" source="RHlCor5PGLr7fR1qlek2-19" target="RHlCor5PGLr7fR1qlek2-62">
          <mxGeometry relative="1" as="geometry">
            <Array as="points">
              <mxPoint x="244" y="1100" />
            </Array>
          </mxGeometry>
        </mxCell>
        <mxCell id="RHlCor5PGLr7fR1qlek2-64" style="edgeStyle=orthogonalEdgeStyle;rounded=0;orthogonalLoop=1;jettySize=auto;html=1;entryX=1;entryY=1;entryDx=0;entryDy=0;" edge="1" parent="1" source="RHlCor5PGLr7fR1qlek2-58" target="RHlCor5PGLr7fR1qlek2-62">
          <mxGeometry relative="1" as="geometry">
            <Array as="points">
              <mxPoint x="724" y="1120" />
              <mxPoint x="455" y="1120" />
            </Array>
          </mxGeometry>
        </mxCell>
        <mxCell id="RHlCor5PGLr7fR1qlek2-65" style="edgeStyle=orthogonalEdgeStyle;rounded=0;orthogonalLoop=1;jettySize=auto;html=1;entryX=0;entryY=0;entryDx=0;entryDy=0;" edge="1" parent="1" source="RHlCor5PGLr7fR1qlek2-66" target="RHlCor5PGLr7fR1qlek2-62">
          <mxGeometry relative="1" as="geometry">
            <Array as="points">
              <mxPoint x="340" y="1080" />
              <mxPoint x="380" y="1080" />
              <mxPoint x="380" y="1079" />
            </Array>
          </mxGeometry>
        </mxCell>
        <mxCell id="RHlCor5PGLr7fR1qlek2-66" value="ส่งกลับหัวข้อการกำกับดูแลกิจการ" style="rounded=1;whiteSpace=wrap;html=1;" vertex="1" parent="1">
          <mxGeometry x="280" y="930" width="120" height="40" as="geometry" />
        </mxCell>
        <mxCell id="RHlCor5PGLr7fR1qlek2-67" value="" style="edgeStyle=orthogonalEdgeStyle;rounded=0;orthogonalLoop=1;jettySize=auto;html=1;" edge="1" parent="1" source="RHlCor5PGLr7fR1qlek2-71" target="RHlCor5PGLr7fR1qlek2-66">
          <mxGeometry relative="1" as="geometry" />
        </mxCell>
        <mxCell id="RHlCor5PGLr7fR1qlek2-68" value="ใช่" style="edgeLabel;html=1;align=center;verticalAlign=middle;resizable=0;points=[];" vertex="1" connectable="0" parent="RHlCor5PGLr7fR1qlek2-67">
          <mxGeometry x="-0.3989" y="-1" relative="1" as="geometry">
            <mxPoint y="2" as="offset" />
          </mxGeometry>
        </mxCell>
        <mxCell id="RHlCor5PGLr7fR1qlek2-69" style="edgeStyle=orthogonalEdgeStyle;rounded=0;orthogonalLoop=1;jettySize=auto;html=1;" edge="1" parent="1" source="RHlCor5PGLr7fR1qlek2-71" target="RHlCor5PGLr7fR1qlek2-73">
          <mxGeometry relative="1" as="geometry" />
        </mxCell>
        <mxCell id="RHlCor5PGLr7fR1qlek2-70" value="ไม่" style="edgeLabel;html=1;align=center;verticalAlign=middle;resizable=0;points=[];" vertex="1" connectable="0" parent="RHlCor5PGLr7fR1qlek2-69">
          <mxGeometry x="0.2287" y="-1" relative="1" as="geometry">
            <mxPoint as="offset" />
          </mxGeometry>
        </mxCell>
        <mxCell id="RHlCor5PGLr7fR1qlek2-71" value="มี?" style="rhombus;whiteSpace=wrap;html=1;" vertex="1" parent="1">
          <mxGeometry x="427.75" y="930" width="48.5" height="40" as="geometry" />
        </mxCell>
        <mxCell id="RHlCor5PGLr7fR1qlek2-72" style="edgeStyle=orthogonalEdgeStyle;rounded=0;orthogonalLoop=1;jettySize=auto;html=1;" edge="1" parent="1" source="RHlCor5PGLr7fR1qlek2-73" target="RHlCor5PGLr7fR1qlek2-62">
          <mxGeometry relative="1" as="geometry" />
        </mxCell>
        <mxCell id="RHlCor5PGLr7fR1qlek2-73" value="return Error code 123" style="rounded=1;whiteSpace=wrap;html=1;" vertex="1" parent="1">
          <mxGeometry x="477" y="1000" width="80" height="50" as="geometry" />
        </mxCell>
      </root>
    </mxGraphModel>
  </diagram>
  <diagram id="6awO0nrjs4Jmg_ukX4Nt" name="Page-3">
    <mxGraphModel dx="1687" dy="899" grid="1" gridSize="10" guides="1" tooltips="1" connect="1" arrows="1" fold="1" page="1" pageScale="1" pageWidth="850" pageHeight="1100" math="0" shadow="0">
      <root>
        <mxCell id="0" />
        <mxCell id="1" parent="0" />
        <mxCell id="po867gTpzzI8TeHixtjo-1" value="เริ่ม" style="ellipse;whiteSpace=wrap;html=1;" vertex="1" parent="1">
          <mxGeometry x="85" y="30" width="80" height="40" as="geometry" />
        </mxCell>
        <mxCell id="po867gTpzzI8TeHixtjo-2" value="ตรวจสอบสิทธิ์การใช้งาน" style="rounded=1;whiteSpace=wrap;html=1;" vertex="1" parent="1">
          <mxGeometry x="55" y="110" width="140" height="30" as="geometry" />
        </mxCell>
        <mxCell id="po867gTpzzI8TeHixtjo-3" value="" style="edgeStyle=orthogonalEdgeStyle;rounded=0;orthogonalLoop=1;jettySize=auto;html=1;" edge="1" parent="1" source="po867gTpzzI8TeHixtjo-1" target="po867gTpzzI8TeHixtjo-2">
          <mxGeometry relative="1" as="geometry" />
        </mxCell>
        <mxCell id="po867gTpzzI8TeHixtjo-4" value="มี ?" style="rhombus;whiteSpace=wrap;html=1;" vertex="1" parent="1">
          <mxGeometry x="95" y="170" width="60" height="60" as="geometry" />
        </mxCell>
        <mxCell id="po867gTpzzI8TeHixtjo-5" value="" style="edgeStyle=orthogonalEdgeStyle;rounded=0;orthogonalLoop=1;jettySize=auto;html=1;" edge="1" parent="1" source="po867gTpzzI8TeHixtjo-2" target="po867gTpzzI8TeHixtjo-4">
          <mxGeometry relative="1" as="geometry" />
        </mxCell>
        <mxCell id="po867gTpzzI8TeHixtjo-6" style="edgeStyle=orthogonalEdgeStyle;rounded=0;orthogonalLoop=1;jettySize=auto;html=1;entryX=-0.022;entryY=0.676;entryDx=0;entryDy=0;entryPerimeter=0;" edge="1" parent="1" source="po867gTpzzI8TeHixtjo-4" target="po867gTpzzI8TeHixtjo-19">
          <mxGeometry relative="1" as="geometry">
            <Array as="points">
              <mxPoint x="125" y="706" />
            </Array>
            <mxPoint x="280" y="740" as="targetPoint" />
          </mxGeometry>
        </mxCell>
        <mxCell id="po867gTpzzI8TeHixtjo-7" value="ไม่" style="edgeLabel;html=1;align=center;verticalAlign=middle;resizable=0;points=[];" vertex="1" connectable="0" parent="po867gTpzzI8TeHixtjo-6">
          <mxGeometry x="-0.8925" y="1" relative="1" as="geometry">
            <mxPoint as="offset" />
          </mxGeometry>
        </mxCell>
        <mxCell id="po867gTpzzI8TeHixtjo-8" value="ตรวจสอบ Account &lt;br&gt;สถานะการใช้งาน" style="rounded=1;whiteSpace=wrap;html=1;" vertex="1" parent="1">
          <mxGeometry x="271.35" y="179" width="170" height="40" as="geometry" />
        </mxCell>
        <mxCell id="po867gTpzzI8TeHixtjo-9" value="" style="edgeStyle=orthogonalEdgeStyle;rounded=0;orthogonalLoop=1;jettySize=auto;html=1;" edge="1" parent="1" source="po867gTpzzI8TeHixtjo-4" target="po867gTpzzI8TeHixtjo-8">
          <mxGeometry relative="1" as="geometry">
            <Array as="points">
              <mxPoint x="235" y="200" />
              <mxPoint x="235" y="200" />
            </Array>
          </mxGeometry>
        </mxCell>
        <mxCell id="po867gTpzzI8TeHixtjo-10" value="ใช่" style="edgeLabel;html=1;align=center;verticalAlign=middle;resizable=0;points=[];" vertex="1" connectable="0" parent="po867gTpzzI8TeHixtjo-9">
          <mxGeometry x="-0.7797" y="-1" relative="1" as="geometry">
            <mxPoint as="offset" />
          </mxGeometry>
        </mxCell>
        <mxCell id="po867gTpzzI8TeHixtjo-11" value="มีใน&lt;br&gt;ระบบ &lt;br&gt;?" style="rhombus;whiteSpace=wrap;html=1;" vertex="1" parent="1">
          <mxGeometry x="349" y="258" width="75" height="70" as="geometry" />
        </mxCell>
        <mxCell id="po867gTpzzI8TeHixtjo-12" value="" style="edgeStyle=orthogonalEdgeStyle;rounded=0;orthogonalLoop=1;jettySize=auto;html=1;" edge="1" parent="1" source="po867gTpzzI8TeHixtjo-8" target="po867gTpzzI8TeHixtjo-11">
          <mxGeometry relative="1" as="geometry" />
        </mxCell>
        <mxCell id="po867gTpzzI8TeHixtjo-13" value="status&lt;br style=&quot;border-color: var(--border-color);&quot;&gt;= 1 ?" style="rhombus;whiteSpace=wrap;html=1;" vertex="1" parent="1">
          <mxGeometry x="377" y="378" width="60" height="60" as="geometry" />
        </mxCell>
        <mxCell id="po867gTpzzI8TeHixtjo-14" value="" style="edgeStyle=orthogonalEdgeStyle;rounded=0;orthogonalLoop=1;jettySize=auto;html=1;" edge="1" parent="1" source="po867gTpzzI8TeHixtjo-11" target="po867gTpzzI8TeHixtjo-13">
          <mxGeometry relative="1" as="geometry" />
        </mxCell>
        <mxCell id="po867gTpzzI8TeHixtjo-15" value="ใช่" style="edgeLabel;html=1;align=center;verticalAlign=middle;resizable=0;points=[];" vertex="1" connectable="0" parent="po867gTpzzI8TeHixtjo-14">
          <mxGeometry x="-0.3254" y="2" relative="1" as="geometry">
            <mxPoint x="-2" as="offset" />
          </mxGeometry>
        </mxCell>
        <mxCell id="po867gTpzzI8TeHixtjo-16" value="Locked&lt;br style=&quot;border-color: var(--border-color);&quot;&gt;= 1 ?&amp;nbsp;" style="rhombus;whiteSpace=wrap;html=1;" vertex="1" parent="1">
          <mxGeometry x="377.75" y="508" width="60" height="60" as="geometry" />
        </mxCell>
        <mxCell id="po867gTpzzI8TeHixtjo-17" value="" style="edgeStyle=orthogonalEdgeStyle;rounded=0;orthogonalLoop=1;jettySize=auto;html=1;" edge="1" parent="1" source="po867gTpzzI8TeHixtjo-13" target="po867gTpzzI8TeHixtjo-16">
          <mxGeometry relative="1" as="geometry" />
        </mxCell>
        <mxCell id="po867gTpzzI8TeHixtjo-18" value="ไม่" style="edgeLabel;html=1;align=center;verticalAlign=middle;resizable=0;points=[];" vertex="1" connectable="0" parent="po867gTpzzI8TeHixtjo-17">
          <mxGeometry x="-0.3745" relative="1" as="geometry">
            <mxPoint as="offset" />
          </mxGeometry>
        </mxCell>
        <mxCell id="po867gTpzzI8TeHixtjo-19" value="1" style="ellipse;whiteSpace=wrap;html=1;aspect=fixed;" vertex="1" parent="1">
          <mxGeometry x="207.5" y="672" width="50" height="50" as="geometry" />
        </mxCell>
        <mxCell id="po867gTpzzI8TeHixtjo-20" style="edgeStyle=orthogonalEdgeStyle;rounded=0;orthogonalLoop=1;jettySize=auto;html=1;exitX=0.492;exitY=0.949;exitDx=0;exitDy=0;exitPerimeter=0;" edge="1" parent="1" source="po867gTpzzI8TeHixtjo-21" target="po867gTpzzI8TeHixtjo-19">
          <mxGeometry relative="1" as="geometry">
            <Array as="points">
              <mxPoint x="176" y="386" />
              <mxPoint x="160" y="386" />
              <mxPoint x="160" y="690" />
            </Array>
          </mxGeometry>
        </mxCell>
        <mxCell id="po867gTpzzI8TeHixtjo-21" value="rerturn Error Code&amp;nbsp;001&lt;span style=&quot;font-size: medium; text-align: start;&quot;&gt;&lt;/span&gt;" style="rounded=1;whiteSpace=wrap;html=1;" vertex="1" parent="1">
          <mxGeometry x="137.5" y="338" width="77.5" height="40" as="geometry" />
        </mxCell>
        <mxCell id="po867gTpzzI8TeHixtjo-22" style="edgeStyle=orthogonalEdgeStyle;rounded=0;orthogonalLoop=1;jettySize=auto;html=1;entryX=1;entryY=1;entryDx=0;entryDy=0;" edge="1" parent="1" source="po867gTpzzI8TeHixtjo-23" target="po867gTpzzI8TeHixtjo-19">
          <mxGeometry relative="1" as="geometry">
            <Array as="points">
              <mxPoint x="312" y="715" />
              <mxPoint x="254" y="715" />
            </Array>
          </mxGeometry>
        </mxCell>
        <mxCell id="po867gTpzzI8TeHixtjo-23" value="rerturn Error Code&amp;nbsp;011&lt;span style=&quot;font-size: medium; text-align: start;&quot;&gt;&lt;/span&gt;" style="rounded=1;whiteSpace=wrap;html=1;" vertex="1" parent="1">
          <mxGeometry x="273.5" y="656" width="77.5" height="40" as="geometry" />
        </mxCell>
        <mxCell id="po867gTpzzI8TeHixtjo-24" value="" style="edgeStyle=orthogonalEdgeStyle;rounded=0;orthogonalLoop=1;jettySize=auto;html=1;entryX=0.467;entryY=0.027;entryDx=0;entryDy=0;entryPerimeter=0;" edge="1" parent="1" source="po867gTpzzI8TeHixtjo-67" target="po867gTpzzI8TeHixtjo-69">
          <mxGeometry relative="1" as="geometry" />
        </mxCell>
        <mxCell id="po867gTpzzI8TeHixtjo-25" style="edgeStyle=orthogonalEdgeStyle;rounded=0;orthogonalLoop=1;jettySize=auto;html=1;" edge="1" parent="1" source="po867gTpzzI8TeHixtjo-26" target="po867gTpzzI8TeHixtjo-19">
          <mxGeometry relative="1" as="geometry">
            <mxPoint x="200" y="640" as="targetPoint" />
            <Array as="points">
              <mxPoint x="219" y="670" />
              <mxPoint x="219" y="670" />
            </Array>
          </mxGeometry>
        </mxCell>
        <mxCell id="po867gTpzzI8TeHixtjo-26" value="rerturn Error Code&amp;nbsp;004&lt;span style=&quot;font-size: medium; text-align: start;&quot;&gt;&lt;/span&gt;" style="rounded=1;whiteSpace=wrap;html=1;" vertex="1" parent="1">
          <mxGeometry x="180" y="478" width="77.5" height="40" as="geometry" />
        </mxCell>
        <mxCell id="po867gTpzzI8TeHixtjo-27" value="" style="edgeStyle=orthogonalEdgeStyle;rounded=0;orthogonalLoop=1;jettySize=auto;html=1;" edge="1" parent="1" source="po867gTpzzI8TeHixtjo-13" target="po867gTpzzI8TeHixtjo-62">
          <mxGeometry relative="1" as="geometry">
            <mxPoint x="310" y="390" as="targetPoint" />
          </mxGeometry>
        </mxCell>
        <mxCell id="po867gTpzzI8TeHixtjo-28" value="ใช่" style="edgeLabel;html=1;align=center;verticalAlign=middle;resizable=0;points=[];" vertex="1" connectable="0" parent="po867gTpzzI8TeHixtjo-27">
          <mxGeometry x="-0.4608" y="2" relative="1" as="geometry">
            <mxPoint as="offset" />
          </mxGeometry>
        </mxCell>
        <mxCell id="po867gTpzzI8TeHixtjo-29" value="" style="edgeStyle=orthogonalEdgeStyle;rounded=0;orthogonalLoop=1;jettySize=auto;html=1;entryX=0.1;entryY=0.5;entryDx=0;entryDy=0;entryPerimeter=0;" edge="1" parent="1" source="po867gTpzzI8TeHixtjo-16" target="po867gTpzzI8TeHixtjo-33">
          <mxGeometry relative="1" as="geometry">
            <mxPoint x="429" y="538" as="targetPoint" />
            <Array as="points">
              <mxPoint x="470" y="538" />
              <mxPoint x="470" y="364" />
            </Array>
          </mxGeometry>
        </mxCell>
        <mxCell id="po867gTpzzI8TeHixtjo-30" value="" style="edgeStyle=orthogonalEdgeStyle;rounded=0;orthogonalLoop=1;jettySize=auto;html=1;" edge="1" parent="1" source="po867gTpzzI8TeHixtjo-33" target="po867gTpzzI8TeHixtjo-34">
          <mxGeometry relative="1" as="geometry">
            <mxPoint x="545" y="538" as="targetPoint" />
            <Array as="points">
              <mxPoint x="600" y="364" />
            </Array>
          </mxGeometry>
        </mxCell>
        <mxCell id="po867gTpzzI8TeHixtjo-31" value="ไม่" style="edgeLabel;html=1;align=center;verticalAlign=middle;resizable=0;points=[];" vertex="1" connectable="0" parent="po867gTpzzI8TeHixtjo-30">
          <mxGeometry x="-0.3115" y="3" relative="1" as="geometry">
            <mxPoint as="offset" />
          </mxGeometry>
        </mxCell>
        <mxCell id="po867gTpzzI8TeHixtjo-32" style="edgeStyle=orthogonalEdgeStyle;rounded=0;orthogonalLoop=1;jettySize=auto;html=1;" edge="1" parent="1" source="po867gTpzzI8TeHixtjo-33" target="po867gTpzzI8TeHixtjo-133">
          <mxGeometry relative="1" as="geometry">
            <Array as="points">
              <mxPoint x="519" y="580" />
              <mxPoint x="476" y="580" />
            </Array>
          </mxGeometry>
        </mxCell>
        <mxCell id="po867gTpzzI8TeHixtjo-33" value="Super&lt;br&gt;Admin ?" style="rhombus;whiteSpace=wrap;html=1;" vertex="1" parent="1">
          <mxGeometry x="486.25" y="328" width="66" height="72" as="geometry" />
        </mxCell>
        <mxCell id="po867gTpzzI8TeHixtjo-34" value="ตรวจสอบสิทธิ์การใช้งาน Company นี้ไหม&lt;span style=&quot;font-size: medium; text-align: start;&quot;&gt;&lt;/span&gt;" style="rounded=1;whiteSpace=wrap;html=1;" vertex="1" parent="1">
          <mxGeometry x="545" y="518" width="110" height="42" as="geometry" />
        </mxCell>
        <mxCell id="po867gTpzzI8TeHixtjo-35" value="มี ?" style="rhombus;whiteSpace=wrap;html=1;" vertex="1" parent="1">
          <mxGeometry x="567" y="600" width="66" height="72" as="geometry" />
        </mxCell>
        <mxCell id="po867gTpzzI8TeHixtjo-36" value="" style="edgeStyle=orthogonalEdgeStyle;rounded=0;orthogonalLoop=1;jettySize=auto;html=1;" edge="1" parent="1" source="po867gTpzzI8TeHixtjo-34" target="po867gTpzzI8TeHixtjo-35">
          <mxGeometry relative="1" as="geometry" />
        </mxCell>
        <mxCell id="po867gTpzzI8TeHixtjo-37" value="Company &lt;br&gt;มีในระบบ&lt;br&gt;ไหม ?" style="rhombus;whiteSpace=wrap;html=1;" vertex="1" parent="1">
          <mxGeometry x="555" y="730" width="90" height="80" as="geometry" />
        </mxCell>
        <mxCell id="po867gTpzzI8TeHixtjo-38" value="" style="edgeStyle=orthogonalEdgeStyle;rounded=0;orthogonalLoop=1;jettySize=auto;html=1;" edge="1" parent="1" source="po867gTpzzI8TeHixtjo-35" target="po867gTpzzI8TeHixtjo-37">
          <mxGeometry relative="1" as="geometry" />
        </mxCell>
        <mxCell id="po867gTpzzI8TeHixtjo-39" value="ใช่" style="edgeLabel;html=1;align=center;verticalAlign=middle;resizable=0;points=[];" vertex="1" connectable="0" parent="po867gTpzzI8TeHixtjo-38">
          <mxGeometry x="-0.2859" relative="1" as="geometry">
            <mxPoint as="offset" />
          </mxGeometry>
        </mxCell>
        <mxCell id="po867gTpzzI8TeHixtjo-40" style="edgeStyle=orthogonalEdgeStyle;rounded=0;orthogonalLoop=1;jettySize=auto;html=1;" edge="1" parent="1">
          <mxGeometry relative="1" as="geometry">
            <mxPoint x="747.5" y="636" as="sourcePoint" />
            <mxPoint x="770" y="636" as="targetPoint" />
          </mxGeometry>
        </mxCell>
        <mxCell id="po867gTpzzI8TeHixtjo-41" style="edgeStyle=orthogonalEdgeStyle;rounded=0;orthogonalLoop=1;jettySize=auto;html=1;" edge="1" parent="1" source="po867gTpzzI8TeHixtjo-35">
          <mxGeometry relative="1" as="geometry">
            <mxPoint x="670" y="636" as="targetPoint" />
          </mxGeometry>
        </mxCell>
        <mxCell id="po867gTpzzI8TeHixtjo-42" value="ไม่" style="edgeLabel;html=1;align=center;verticalAlign=middle;resizable=0;points=[];" vertex="1" connectable="0" parent="po867gTpzzI8TeHixtjo-41">
          <mxGeometry x="-0.0865" y="2" relative="1" as="geometry">
            <mxPoint as="offset" />
          </mxGeometry>
        </mxCell>
        <mxCell id="po867gTpzzI8TeHixtjo-43" style="edgeStyle=orthogonalEdgeStyle;rounded=0;orthogonalLoop=1;jettySize=auto;html=1;entryX=1;entryY=0.5;entryDx=0;entryDy=0;" edge="1" parent="1" source="po867gTpzzI8TeHixtjo-45" target="po867gTpzzI8TeHixtjo-133">
          <mxGeometry relative="1" as="geometry">
            <Array as="points">
              <mxPoint x="550" y="890" />
              <mxPoint x="550" y="700" />
            </Array>
          </mxGeometry>
        </mxCell>
        <mxCell id="po867gTpzzI8TeHixtjo-44" value="ใช่" style="edgeLabel;html=1;align=center;verticalAlign=middle;resizable=0;points=[];" vertex="1" connectable="0" parent="po867gTpzzI8TeHixtjo-43">
          <mxGeometry x="-0.0994" relative="1" as="geometry">
            <mxPoint as="offset" />
          </mxGeometry>
        </mxCell>
        <mxCell id="po867gTpzzI8TeHixtjo-45" value="Company &lt;br&gt;Active ?" style="rhombus;whiteSpace=wrap;html=1;" vertex="1" parent="1">
          <mxGeometry x="555" y="850" width="90" height="80" as="geometry" />
        </mxCell>
        <mxCell id="po867gTpzzI8TeHixtjo-46" value="ใช่" style="edgeStyle=orthogonalEdgeStyle;rounded=0;orthogonalLoop=1;jettySize=auto;html=1;" edge="1" parent="1" source="po867gTpzzI8TeHixtjo-37" target="po867gTpzzI8TeHixtjo-45">
          <mxGeometry relative="1" as="geometry" />
        </mxCell>
        <mxCell id="po867gTpzzI8TeHixtjo-47" value="" style="edgeStyle=orthogonalEdgeStyle;rounded=0;orthogonalLoop=1;jettySize=auto;html=1;" edge="1" parent="1" source="po867gTpzzI8TeHixtjo-37">
          <mxGeometry relative="1" as="geometry">
            <mxPoint x="695" y="770" as="targetPoint" />
          </mxGeometry>
        </mxCell>
        <mxCell id="po867gTpzzI8TeHixtjo-48" value="ไม่" style="edgeLabel;html=1;align=center;verticalAlign=middle;resizable=0;points=[];" vertex="1" connectable="0" parent="po867gTpzzI8TeHixtjo-47">
          <mxGeometry x="-0.1127" relative="1" as="geometry">
            <mxPoint as="offset" />
          </mxGeometry>
        </mxCell>
        <mxCell id="po867gTpzzI8TeHixtjo-49" value="" style="edgeStyle=orthogonalEdgeStyle;rounded=0;orthogonalLoop=1;jettySize=auto;html=1;" edge="1" parent="1" source="po867gTpzzI8TeHixtjo-45" target="po867gTpzzI8TeHixtjo-82">
          <mxGeometry relative="1" as="geometry">
            <mxPoint x="695" y="890" as="targetPoint" />
          </mxGeometry>
        </mxCell>
        <mxCell id="po867gTpzzI8TeHixtjo-50" value="ไม่" style="edgeLabel;html=1;align=center;verticalAlign=middle;resizable=0;points=[];" vertex="1" connectable="0" parent="po867gTpzzI8TeHixtjo-49">
          <mxGeometry x="-0.2152" y="2" relative="1" as="geometry">
            <mxPoint as="offset" />
          </mxGeometry>
        </mxCell>
        <mxCell id="po867gTpzzI8TeHixtjo-51" style="edgeStyle=orthogonalEdgeStyle;rounded=0;orthogonalLoop=1;jettySize=auto;html=1;entryX=1;entryY=0.5;entryDx=0;entryDy=0;" edge="1" parent="1" source="po867gTpzzI8TeHixtjo-52" target="po867gTpzzI8TeHixtjo-90">
          <mxGeometry relative="1" as="geometry">
            <Array as="points">
              <mxPoint x="734" y="1720" />
              <mxPoint x="489" y="1720" />
            </Array>
          </mxGeometry>
        </mxCell>
        <mxCell id="po867gTpzzI8TeHixtjo-52" value="2" style="ellipse;whiteSpace=wrap;html=1;aspect=fixed;" vertex="1" parent="1">
          <mxGeometry x="708.75" y="980" width="50" height="50" as="geometry" />
        </mxCell>
        <mxCell id="po867gTpzzI8TeHixtjo-53" style="edgeStyle=orthogonalEdgeStyle;rounded=0;orthogonalLoop=1;jettySize=auto;html=1;entryX=1;entryY=0.5;entryDx=0;entryDy=0;" edge="1" parent="1" source="po867gTpzzI8TeHixtjo-72" target="po867gTpzzI8TeHixtjo-52">
          <mxGeometry relative="1" as="geometry">
            <mxPoint x="795" y="790" as="targetPoint" />
            <Array as="points">
              <mxPoint x="920" y="702" />
              <mxPoint x="920" y="1005" />
            </Array>
            <mxPoint x="810.0285714285715" y="656" as="sourcePoint" />
          </mxGeometry>
        </mxCell>
        <mxCell id="po867gTpzzI8TeHixtjo-54" style="edgeStyle=orthogonalEdgeStyle;rounded=0;orthogonalLoop=1;jettySize=auto;html=1;entryX=0;entryY=0.5;entryDx=0;entryDy=0;" edge="1" parent="1" target="po867gTpzzI8TeHixtjo-78">
          <mxGeometry relative="1" as="geometry">
            <Array as="points">
              <mxPoint x="790" y="770" />
              <mxPoint x="790" y="770" />
            </Array>
            <mxPoint x="772.5" y="770.037037037037" as="sourcePoint" />
          </mxGeometry>
        </mxCell>
        <mxCell id="po867gTpzzI8TeHixtjo-55" value="" style="edgeStyle=orthogonalEdgeStyle;rounded=0;orthogonalLoop=1;jettySize=auto;html=1;entryX=0.5;entryY=0;entryDx=0;entryDy=0;" edge="1" parent="1" source="po867gTpzzI8TeHixtjo-56" target="po867gTpzzI8TeHixtjo-21">
          <mxGeometry relative="1" as="geometry" />
        </mxCell>
        <mxCell id="po867gTpzzI8TeHixtjo-56" value="บันทึกข้อมูล&lt;span style=&quot;font-size: medium; text-align: start;&quot;&gt;&lt;/span&gt;" style="rounded=1;whiteSpace=wrap;html=1;" vertex="1" parent="1">
          <mxGeometry x="137.5" y="273" width="77.5" height="40" as="geometry" />
        </mxCell>
        <mxCell id="po867gTpzzI8TeHixtjo-57" value="" style="edgeStyle=orthogonalEdgeStyle;rounded=0;orthogonalLoop=1;jettySize=auto;html=1;" edge="1" parent="1" source="po867gTpzzI8TeHixtjo-11" target="po867gTpzzI8TeHixtjo-60">
          <mxGeometry relative="1" as="geometry">
            <mxPoint x="169" y="348" as="targetPoint" />
            <mxPoint x="319" y="293" as="sourcePoint" />
          </mxGeometry>
        </mxCell>
        <mxCell id="po867gTpzzI8TeHixtjo-58" value="ไม่" style="edgeLabel;html=1;align=center;verticalAlign=middle;resizable=0;points=[];" vertex="1" connectable="0" parent="po867gTpzzI8TeHixtjo-57">
          <mxGeometry x="-0.6573" y="2" relative="1" as="geometry">
            <mxPoint as="offset" />
          </mxGeometry>
        </mxCell>
        <mxCell id="po867gTpzzI8TeHixtjo-59" style="edgeStyle=orthogonalEdgeStyle;rounded=0;orthogonalLoop=1;jettySize=auto;html=1;" edge="1" parent="1" source="po867gTpzzI8TeHixtjo-60" target="po867gTpzzI8TeHixtjo-56">
          <mxGeometry relative="1" as="geometry" />
        </mxCell>
        <mxCell id="po867gTpzzI8TeHixtjo-60" value="สร้างข้อมูล ActivityLog&lt;span style=&quot;font-size: medium; text-align: start;&quot;&gt;&lt;/span&gt;" style="rounded=1;whiteSpace=wrap;html=1;" vertex="1" parent="1">
          <mxGeometry x="240" y="273" width="77.5" height="40" as="geometry" />
        </mxCell>
        <mxCell id="po867gTpzzI8TeHixtjo-61" style="edgeStyle=orthogonalEdgeStyle;rounded=0;orthogonalLoop=1;jettySize=auto;html=1;" edge="1" parent="1" source="po867gTpzzI8TeHixtjo-62" target="po867gTpzzI8TeHixtjo-64">
          <mxGeometry relative="1" as="geometry" />
        </mxCell>
        <mxCell id="po867gTpzzI8TeHixtjo-62" value="สร้างข้อมูล ActivityLog&lt;span style=&quot;font-size: medium; text-align: start;&quot;&gt;&lt;/span&gt;" style="rounded=1;whiteSpace=wrap;html=1;" vertex="1" parent="1">
          <mxGeometry x="271.35" y="388" width="77.5" height="40" as="geometry" />
        </mxCell>
        <mxCell id="po867gTpzzI8TeHixtjo-63" style="edgeStyle=orthogonalEdgeStyle;rounded=0;orthogonalLoop=1;jettySize=auto;html=1;entryX=0.5;entryY=0;entryDx=0;entryDy=0;" edge="1" parent="1" source="po867gTpzzI8TeHixtjo-64" target="po867gTpzzI8TeHixtjo-26">
          <mxGeometry relative="1" as="geometry">
            <Array as="points">
              <mxPoint x="204" y="448" />
            </Array>
          </mxGeometry>
        </mxCell>
        <mxCell id="po867gTpzzI8TeHixtjo-64" value="บันทึกข้อมูล&lt;span style=&quot;font-size: medium; text-align: start;&quot;&gt;&lt;/span&gt;" style="rounded=1;whiteSpace=wrap;html=1;" vertex="1" parent="1">
          <mxGeometry x="180" y="388" width="77.5" height="40" as="geometry" />
        </mxCell>
        <mxCell id="po867gTpzzI8TeHixtjo-65" value="" style="edgeStyle=orthogonalEdgeStyle;rounded=0;orthogonalLoop=1;jettySize=auto;html=1;" edge="1" parent="1" source="po867gTpzzI8TeHixtjo-16" target="po867gTpzzI8TeHixtjo-67">
          <mxGeometry relative="1" as="geometry">
            <mxPoint x="378" y="538" as="sourcePoint" />
            <mxPoint x="338" y="595" as="targetPoint" />
          </mxGeometry>
        </mxCell>
        <mxCell id="po867gTpzzI8TeHixtjo-66" value="ใช่" style="edgeLabel;html=1;align=center;verticalAlign=middle;resizable=0;points=[];" vertex="1" connectable="0" parent="po867gTpzzI8TeHixtjo-65">
          <mxGeometry x="-0.4608" y="1" relative="1" as="geometry">
            <mxPoint as="offset" />
          </mxGeometry>
        </mxCell>
        <mxCell id="po867gTpzzI8TeHixtjo-67" value="สร้างข้อมูล ActivityLog&lt;span style=&quot;font-size: medium; text-align: start;&quot;&gt;&lt;/span&gt;" style="rounded=1;whiteSpace=wrap;html=1;" vertex="1" parent="1">
          <mxGeometry x="271.35" y="518" width="77.5" height="40" as="geometry" />
        </mxCell>
        <mxCell id="po867gTpzzI8TeHixtjo-68" value="" style="edgeStyle=orthogonalEdgeStyle;rounded=0;orthogonalLoop=1;jettySize=auto;html=1;" edge="1" parent="1" source="po867gTpzzI8TeHixtjo-69" target="po867gTpzzI8TeHixtjo-23">
          <mxGeometry relative="1" as="geometry" />
        </mxCell>
        <mxCell id="po867gTpzzI8TeHixtjo-69" value="บันทึกข้อมูล&lt;span style=&quot;font-size: medium; text-align: start;&quot;&gt;&lt;/span&gt;" style="rounded=1;whiteSpace=wrap;html=1;" vertex="1" parent="1">
          <mxGeometry x="273.5" y="590" width="77.5" height="40" as="geometry" />
        </mxCell>
        <mxCell id="po867gTpzzI8TeHixtjo-70" style="edgeStyle=orthogonalEdgeStyle;rounded=0;orthogonalLoop=1;jettySize=auto;html=1;entryX=0.5;entryY=0;entryDx=0;entryDy=0;" edge="1" parent="1" source="po867gTpzzI8TeHixtjo-71" target="po867gTpzzI8TeHixtjo-72">
          <mxGeometry relative="1" as="geometry" />
        </mxCell>
        <mxCell id="po867gTpzzI8TeHixtjo-71" value="บันทึกข้อมูล" style="rounded=1;whiteSpace=wrap;html=1;" vertex="1" parent="1">
          <mxGeometry x="770" y="616" width="77.5" height="40" as="geometry" />
        </mxCell>
        <mxCell id="po867gTpzzI8TeHixtjo-72" value="rerturn Error Code&amp;nbsp;002&lt;span style=&quot;font-size: medium; text-align: start;&quot;&gt;&lt;/span&gt;" style="rounded=1;whiteSpace=wrap;html=1;" vertex="1" parent="1">
          <mxGeometry x="770" y="682" width="77.5" height="40" as="geometry" />
        </mxCell>
        <mxCell id="po867gTpzzI8TeHixtjo-73" value="สร้างข้อมูล ActivityLog&lt;span style=&quot;font-size: medium; text-align: start;&quot;&gt;&lt;/span&gt;" style="rounded=1;whiteSpace=wrap;html=1;" vertex="1" parent="1">
          <mxGeometry x="670" y="616" width="77.5" height="40" as="geometry" />
        </mxCell>
        <mxCell id="po867gTpzzI8TeHixtjo-74" style="edgeStyle=orthogonalEdgeStyle;rounded=0;orthogonalLoop=1;jettySize=auto;html=1;" edge="1" parent="1" source="po867gTpzzI8TeHixtjo-75">
          <mxGeometry relative="1" as="geometry">
            <mxPoint x="920" y="830" as="targetPoint" />
          </mxGeometry>
        </mxCell>
        <mxCell id="po867gTpzzI8TeHixtjo-75" value="rerturn Error Code&amp;nbsp;007&lt;span style=&quot;font-size: medium; text-align: start;&quot;&gt;&lt;/span&gt;" style="rounded=1;whiteSpace=wrap;html=1;" vertex="1" parent="1">
          <mxGeometry x="800" y="810" width="77.5" height="40" as="geometry" />
        </mxCell>
        <mxCell id="po867gTpzzI8TeHixtjo-76" value="สร้างข้อมูล ActivityLog&lt;span style=&quot;font-size: medium; text-align: start;&quot;&gt;&lt;/span&gt;" style="rounded=1;whiteSpace=wrap;html=1;" vertex="1" parent="1">
          <mxGeometry x="695" y="750" width="77.5" height="40" as="geometry" />
        </mxCell>
        <mxCell id="po867gTpzzI8TeHixtjo-77" style="edgeStyle=orthogonalEdgeStyle;rounded=0;orthogonalLoop=1;jettySize=auto;html=1;" edge="1" parent="1" source="po867gTpzzI8TeHixtjo-78" target="po867gTpzzI8TeHixtjo-75">
          <mxGeometry relative="1" as="geometry" />
        </mxCell>
        <mxCell id="po867gTpzzI8TeHixtjo-78" value="บันทึกข้อมูล" style="rounded=1;whiteSpace=wrap;html=1;" vertex="1" parent="1">
          <mxGeometry x="800" y="750" width="77.5" height="40" as="geometry" />
        </mxCell>
        <mxCell id="po867gTpzzI8TeHixtjo-79" style="edgeStyle=orthogonalEdgeStyle;rounded=0;orthogonalLoop=1;jettySize=auto;html=1;" edge="1" parent="1" source="po867gTpzzI8TeHixtjo-80" target="po867gTpzzI8TeHixtjo-52">
          <mxGeometry relative="1" as="geometry">
            <mxPoint x="839" y="1000" as="targetPoint" />
          </mxGeometry>
        </mxCell>
        <mxCell id="po867gTpzzI8TeHixtjo-80" value="rerturn Error Code&amp;nbsp;051&lt;span style=&quot;font-size: medium; text-align: start;&quot;&gt;&lt;/span&gt;" style="rounded=1;whiteSpace=wrap;html=1;" vertex="1" parent="1">
          <mxGeometry x="800" y="930" width="77.5" height="40" as="geometry" />
        </mxCell>
        <mxCell id="po867gTpzzI8TeHixtjo-81" style="edgeStyle=orthogonalEdgeStyle;rounded=0;orthogonalLoop=1;jettySize=auto;html=1;entryX=-0.036;entryY=0.462;entryDx=0;entryDy=0;entryPerimeter=0;" edge="1" parent="1" source="po867gTpzzI8TeHixtjo-82" target="po867gTpzzI8TeHixtjo-84">
          <mxGeometry relative="1" as="geometry" />
        </mxCell>
        <mxCell id="po867gTpzzI8TeHixtjo-82" value="สร้างข้อมูล ActivityLog&lt;span style=&quot;font-size: medium; text-align: start;&quot;&gt;&lt;/span&gt;" style="rounded=1;whiteSpace=wrap;html=1;" vertex="1" parent="1">
          <mxGeometry x="692.5" y="870" width="77.5" height="40" as="geometry" />
        </mxCell>
        <mxCell id="po867gTpzzI8TeHixtjo-83" style="edgeStyle=orthogonalEdgeStyle;rounded=0;orthogonalLoop=1;jettySize=auto;html=1;" edge="1" parent="1" source="po867gTpzzI8TeHixtjo-84" target="po867gTpzzI8TeHixtjo-80">
          <mxGeometry relative="1" as="geometry" />
        </mxCell>
        <mxCell id="po867gTpzzI8TeHixtjo-84" value="บันทึกข้อมูล" style="rounded=1;whiteSpace=wrap;html=1;" vertex="1" parent="1">
          <mxGeometry x="800" y="870" width="77.5" height="40" as="geometry" />
        </mxCell>
        <mxCell id="po867gTpzzI8TeHixtjo-131" value="" style="edgeStyle=orthogonalEdgeStyle;rounded=0;orthogonalLoop=1;jettySize=auto;html=1;entryX=0.5;entryY=0;entryDx=0;entryDy=0;" edge="1" parent="1" source="po867gTpzzI8TeHixtjo-134" target="po867gTpzzI8TeHixtjo-144">
          <mxGeometry relative="1" as="geometry">
            <mxPoint x="477" y="870" as="targetPoint" />
          </mxGeometry>
        </mxCell>
        <mxCell id="po867gTpzzI8TeHixtjo-132" value="ใช่" style="edgeLabel;html=1;align=center;verticalAlign=middle;resizable=0;points=[];" vertex="1" connectable="0" parent="po867gTpzzI8TeHixtjo-131">
          <mxGeometry x="-0.3989" y="-1" relative="1" as="geometry">
            <mxPoint y="2" as="offset" />
          </mxGeometry>
        </mxCell>
        <mxCell id="po867gTpzzI8TeHixtjo-133" value="ดึงหัวข้อการกำกับดูแลกิจการ" style="rounded=1;whiteSpace=wrap;html=1;" vertex="1" parent="1">
          <mxGeometry x="415.75" y="680" width="120" height="40" as="geometry" />
        </mxCell>
        <mxCell id="po867gTpzzI8TeHixtjo-134" value="มี?" style="rhombus;whiteSpace=wrap;html=1;" vertex="1" parent="1">
          <mxGeometry x="451.5" y="750" width="48.5" height="40" as="geometry" />
        </mxCell>
        <mxCell id="po867gTpzzI8TeHixtjo-135" value="" style="edgeStyle=orthogonalEdgeStyle;rounded=0;orthogonalLoop=1;jettySize=auto;html=1;" edge="1" parent="1" source="po867gTpzzI8TeHixtjo-133" target="po867gTpzzI8TeHixtjo-134">
          <mxGeometry relative="1" as="geometry" />
        </mxCell>
        <mxCell id="po867gTpzzI8TeHixtjo-136" style="edgeStyle=orthogonalEdgeStyle;rounded=0;orthogonalLoop=1;jettySize=auto;html=1;" edge="1" parent="1" source="po867gTpzzI8TeHixtjo-137" target="po867gTpzzI8TeHixtjo-19">
          <mxGeometry relative="1" as="geometry">
            <mxPoint x="276.75" y="682" as="targetPoint" />
            <Array as="points">
              <mxPoint x="170" y="750" />
              <mxPoint x="233" y="750" />
            </Array>
          </mxGeometry>
        </mxCell>
        <mxCell id="po867gTpzzI8TeHixtjo-137" value="return Error code 123" style="rounded=1;whiteSpace=wrap;html=1;" vertex="1" parent="1">
          <mxGeometry x="115" y="780" width="80" height="50" as="geometry" />
        </mxCell>
        <mxCell id="po867gTpzzI8TeHixtjo-138" style="edgeStyle=orthogonalEdgeStyle;rounded=0;orthogonalLoop=1;jettySize=auto;html=1;" edge="1" parent="1" source="po867gTpzzI8TeHixtjo-141" target="po867gTpzzI8TeHixtjo-137">
          <mxGeometry relative="1" as="geometry" />
        </mxCell>
        <mxCell id="po867gTpzzI8TeHixtjo-139" value="" style="edgeStyle=orthogonalEdgeStyle;rounded=0;orthogonalLoop=1;jettySize=auto;html=1;" edge="1" parent="1" source="po867gTpzzI8TeHixtjo-134" target="po867gTpzzI8TeHixtjo-141">
          <mxGeometry relative="1" as="geometry">
            <mxPoint x="451.75" y="770" as="sourcePoint" />
            <mxPoint x="303.75" y="755" as="targetPoint" />
          </mxGeometry>
        </mxCell>
        <mxCell id="po867gTpzzI8TeHixtjo-140" value="ไม่" style="edgeLabel;html=1;align=center;verticalAlign=middle;resizable=0;points=[];" vertex="1" connectable="0" parent="po867gTpzzI8TeHixtjo-139">
          <mxGeometry x="-0.7326" relative="1" as="geometry">
            <mxPoint as="offset" />
          </mxGeometry>
        </mxCell>
        <mxCell id="po867gTpzzI8TeHixtjo-141" value="สร้างข้อมูล ActivityLog&lt;span style=&quot;font-size: medium; text-align: start;&quot;&gt;&lt;/span&gt;" style="rounded=1;whiteSpace=wrap;html=1;" vertex="1" parent="1">
          <mxGeometry x="338.25" y="790" width="77.5" height="40" as="geometry" />
        </mxCell>
        <mxCell id="po867gTpzzI8TeHixtjo-142" value="บันทึกข้อมูล&lt;span style=&quot;font-size: medium; text-align: start;&quot;&gt;&lt;/span&gt;" style="rounded=1;whiteSpace=wrap;html=1;" vertex="1" parent="1">
          <mxGeometry x="238.75" y="790" width="77.5" height="40" as="geometry" />
        </mxCell>
        <mxCell id="po867gTpzzI8TeHixtjo-143" style="edgeStyle=orthogonalEdgeStyle;rounded=0;orthogonalLoop=1;jettySize=auto;html=1;" edge="1" parent="1" source="po867gTpzzI8TeHixtjo-144" target="po867gTpzzI8TeHixtjo-87">
          <mxGeometry relative="1" as="geometry">
            <mxPoint x="474.83333333333326" y="960" as="targetPoint" />
            <Array as="points" />
          </mxGeometry>
        </mxCell>
        <mxCell id="po867gTpzzI8TeHixtjo-144" value="Active &lt;br&gt;?" style="rhombus;whiteSpace=wrap;html=1;" vertex="1" parent="1">
          <mxGeometry x="445.55" y="850" width="58.5" height="50" as="geometry" />
        </mxCell>
        <mxCell id="po867gTpzzI8TeHixtjo-145" style="edgeStyle=orthogonalEdgeStyle;rounded=0;orthogonalLoop=1;jettySize=auto;html=1;entryX=0;entryY=1;entryDx=0;entryDy=0;" edge="1" parent="1" source="po867gTpzzI8TeHixtjo-146" target="po867gTpzzI8TeHixtjo-19">
          <mxGeometry relative="1" as="geometry">
            <mxPoint x="60" y="720" as="targetPoint" />
            <Array as="points">
              <mxPoint x="80" y="915" />
              <mxPoint x="80" y="720" />
              <mxPoint x="215" y="720" />
            </Array>
          </mxGeometry>
        </mxCell>
        <mxCell id="po867gTpzzI8TeHixtjo-146" value="return Error code 124" style="rounded=1;whiteSpace=wrap;html=1;" vertex="1" parent="1">
          <mxGeometry x="115" y="890" width="80" height="50" as="geometry" />
        </mxCell>
        <mxCell id="po867gTpzzI8TeHixtjo-147" style="edgeStyle=orthogonalEdgeStyle;rounded=0;orthogonalLoop=1;jettySize=auto;html=1;" edge="1" parent="1" source="po867gTpzzI8TeHixtjo-150" target="po867gTpzzI8TeHixtjo-146">
          <mxGeometry relative="1" as="geometry" />
        </mxCell>
        <mxCell id="po867gTpzzI8TeHixtjo-148" value="" style="edgeStyle=orthogonalEdgeStyle;rounded=0;orthogonalLoop=1;jettySize=auto;html=1;" edge="1" parent="1" source="po867gTpzzI8TeHixtjo-144" target="po867gTpzzI8TeHixtjo-150">
          <mxGeometry relative="1" as="geometry">
            <mxPoint x="451.75" y="880" as="sourcePoint" />
            <mxPoint x="303.75" y="865" as="targetPoint" />
          </mxGeometry>
        </mxCell>
        <mxCell id="po867gTpzzI8TeHixtjo-149" value="ไม่" style="edgeLabel;html=1;align=center;verticalAlign=middle;resizable=0;points=[];" vertex="1" connectable="0" parent="po867gTpzzI8TeHixtjo-148">
          <mxGeometry x="-0.7326" relative="1" as="geometry">
            <mxPoint as="offset" />
          </mxGeometry>
        </mxCell>
        <mxCell id="po867gTpzzI8TeHixtjo-150" value="สร้างข้อมูล ActivityLog&lt;span style=&quot;font-size: medium; text-align: start;&quot;&gt;&lt;/span&gt;" style="rounded=1;whiteSpace=wrap;html=1;" vertex="1" parent="1">
          <mxGeometry x="338.25" y="900" width="77.5" height="40" as="geometry" />
        </mxCell>
        <mxCell id="po867gTpzzI8TeHixtjo-151" value="บันทึกข้อมูล&lt;span style=&quot;font-size: medium; text-align: start;&quot;&gt;&lt;/span&gt;" style="rounded=1;whiteSpace=wrap;html=1;" vertex="1" parent="1">
          <mxGeometry x="238.75" y="900" width="77.5" height="40" as="geometry" />
        </mxCell>
        <mxCell id="po867gTpzzI8TeHixtjo-163" value="" style="group" vertex="1" connectable="0" parent="1">
          <mxGeometry x="83.71" y="1000" width="420.34" height="750" as="geometry" />
        </mxCell>
        <mxCell id="po867gTpzzI8TeHixtjo-87" value="Picture?" style="rhombus;whiteSpace=wrap;html=1;" vertex="1" parent="po867gTpzzI8TeHixtjo-163">
          <mxGeometry x="360.34" width="60" height="60" as="geometry" />
        </mxCell>
        <mxCell id="po867gTpzzI8TeHixtjo-88" style="edgeStyle=orthogonalEdgeStyle;rounded=0;orthogonalLoop=1;jettySize=auto;html=1;entryX=0.5;entryY=0;entryDx=0;entryDy=0;" edge="1" parent="po867gTpzzI8TeHixtjo-163" source="po867gTpzzI8TeHixtjo-87" target="po867gTpzzI8TeHixtjo-93">
          <mxGeometry relative="1" as="geometry">
            <mxPoint x="392.34" y="95" as="targetPoint" />
          </mxGeometry>
        </mxCell>
        <mxCell id="po867gTpzzI8TeHixtjo-89" value="ใช่" style="edgeLabel;html=1;align=center;verticalAlign=middle;resizable=0;points=[];" vertex="1" connectable="0" parent="po867gTpzzI8TeHixtjo-88">
          <mxGeometry x="-0.1526" y="1" relative="1" as="geometry">
            <mxPoint as="offset" />
          </mxGeometry>
        </mxCell>
        <mxCell id="po867gTpzzI8TeHixtjo-90" value="สิ้นสุด" style="ellipse;whiteSpace=wrap;html=1;" vertex="1" parent="po867gTpzzI8TeHixtjo-163">
          <mxGeometry x="305.61999999999995" y="700" width="100" height="50" as="geometry" />
        </mxCell>
        <mxCell id="po867gTpzzI8TeHixtjo-91" style="edgeStyle=orthogonalEdgeStyle;rounded=0;orthogonalLoop=1;jettySize=auto;html=1;" edge="1" parent="po867gTpzzI8TeHixtjo-163" source="po867gTpzzI8TeHixtjo-92" target="po867gTpzzI8TeHixtjo-90">
          <mxGeometry relative="1" as="geometry">
            <Array as="points">
              <mxPoint x="88.62" y="725" />
              <mxPoint x="88.62" y="725" />
            </Array>
          </mxGeometry>
        </mxCell>
        <mxCell id="po867gTpzzI8TeHixtjo-92" value="1" style="ellipse;whiteSpace=wrap;html=1;aspect=fixed;" vertex="1" parent="po867gTpzzI8TeHixtjo-163">
          <mxGeometry y="700" width="50" height="50" as="geometry" />
        </mxCell>
        <mxCell id="po867gTpzzI8TeHixtjo-93" value="ไฟล&lt;br&gt;รูปภาพ ?" style="rhombus;whiteSpace=wrap;html=1;" vertex="1" parent="po867gTpzzI8TeHixtjo-163">
          <mxGeometry x="246.21999999999997" y="60" width="65" height="65" as="geometry" />
        </mxCell>
        <mxCell id="po867gTpzzI8TeHixtjo-96" value="ขนาดไฟล&lt;br&gt;&amp;nbsp;&amp;gt; 50mb ?" style="rhombus;whiteSpace=wrap;html=1;" vertex="1" parent="po867gTpzzI8TeHixtjo-163">
          <mxGeometry x="238.71999999999997" y="147.5" width="80" height="70" as="geometry" />
        </mxCell>
        <mxCell id="po867gTpzzI8TeHixtjo-97" value="" style="edgeStyle=orthogonalEdgeStyle;rounded=0;orthogonalLoop=1;jettySize=auto;html=1;" edge="1" parent="po867gTpzzI8TeHixtjo-163" source="po867gTpzzI8TeHixtjo-93" target="po867gTpzzI8TeHixtjo-96">
          <mxGeometry relative="1" as="geometry">
            <Array as="points">
              <mxPoint x="277.71999999999997" y="145.5" />
              <mxPoint x="278.71999999999997" y="145.5" />
            </Array>
          </mxGeometry>
        </mxCell>
        <mxCell id="po867gTpzzI8TeHixtjo-98" value="ใช่" style="edgeLabel;html=1;align=center;verticalAlign=middle;resizable=0;points=[];" vertex="1" connectable="0" parent="po867gTpzzI8TeHixtjo-97">
          <mxGeometry x="0.4745" y="1" relative="1" as="geometry">
            <mxPoint as="offset" />
          </mxGeometry>
        </mxCell>
        <mxCell id="po867gTpzzI8TeHixtjo-99" value="rerturn Error Code 043&lt;span style=&quot;font-size: medium; text-align: start;&quot;&gt;&lt;/span&gt;" style="rounded=1;whiteSpace=wrap;html=1;" vertex="1" parent="po867gTpzzI8TeHixtjo-163">
          <mxGeometry x="52.07000000000002" y="142.5" width="77.5" height="40" as="geometry" />
        </mxCell>
        <mxCell id="po867gTpzzI8TeHixtjo-100" value="สร้างข้อมูล ActivityLog&lt;span style=&quot;font-size: medium; text-align: start;&quot;&gt;&lt;/span&gt;" style="rounded=1;whiteSpace=wrap;html=1;" vertex="1" parent="po867gTpzzI8TeHixtjo-163">
          <mxGeometry x="143.72000000000003" y="72.5" width="77.5" height="40" as="geometry" />
        </mxCell>
        <mxCell id="po867gTpzzI8TeHixtjo-101" style="edgeStyle=orthogonalEdgeStyle;rounded=0;orthogonalLoop=1;jettySize=auto;html=1;" edge="1" parent="po867gTpzzI8TeHixtjo-163" source="po867gTpzzI8TeHixtjo-93" target="po867gTpzzI8TeHixtjo-100">
          <mxGeometry relative="1" as="geometry" />
        </mxCell>
        <mxCell id="po867gTpzzI8TeHixtjo-102" value="ไม่" style="edgeLabel;html=1;align=center;verticalAlign=middle;resizable=0;points=[];" vertex="1" connectable="0" parent="po867gTpzzI8TeHixtjo-101">
          <mxGeometry x="0.5378" relative="1" as="geometry">
            <mxPoint as="offset" />
          </mxGeometry>
        </mxCell>
        <mxCell id="po867gTpzzI8TeHixtjo-103" value="" style="edgeStyle=orthogonalEdgeStyle;rounded=0;orthogonalLoop=1;jettySize=auto;html=1;entryX=0.5;entryY=0;entryDx=0;entryDy=0;" edge="1" parent="po867gTpzzI8TeHixtjo-163" source="po867gTpzzI8TeHixtjo-104" target="po867gTpzzI8TeHixtjo-99">
          <mxGeometry relative="1" as="geometry" />
        </mxCell>
        <mxCell id="po867gTpzzI8TeHixtjo-104" value="บันทึกข้อมูล&lt;span style=&quot;font-size: medium; text-align: start;&quot;&gt;&lt;/span&gt;" style="rounded=1;whiteSpace=wrap;html=1;" vertex="1" parent="po867gTpzzI8TeHixtjo-163">
          <mxGeometry x="37.72000000000003" y="72.5" width="77.5" height="40" as="geometry" />
        </mxCell>
        <mxCell id="po867gTpzzI8TeHixtjo-105" value="" style="edgeStyle=orthogonalEdgeStyle;rounded=0;orthogonalLoop=1;jettySize=auto;html=1;" edge="1" parent="po867gTpzzI8TeHixtjo-163" source="po867gTpzzI8TeHixtjo-100" target="po867gTpzzI8TeHixtjo-104">
          <mxGeometry relative="1" as="geometry" />
        </mxCell>
        <mxCell id="po867gTpzzI8TeHixtjo-106" value="rerturn Error Code 044&lt;span style=&quot;font-size: medium; text-align: start;&quot;&gt;&lt;/span&gt;" style="rounded=1;whiteSpace=wrap;html=1;" vertex="1" parent="po867gTpzzI8TeHixtjo-163">
          <mxGeometry x="52.07000000000002" y="287.5" width="77.5" height="40" as="geometry" />
        </mxCell>
        <mxCell id="po867gTpzzI8TeHixtjo-107" value="สร้างข้อมูล ActivityLog&lt;span style=&quot;font-size: medium; text-align: start;&quot;&gt;&lt;/span&gt;" style="rounded=1;whiteSpace=wrap;html=1;" vertex="1" parent="po867gTpzzI8TeHixtjo-163">
          <mxGeometry x="153.72000000000003" y="217.5" width="77.5" height="40" as="geometry" />
        </mxCell>
        <mxCell id="po867gTpzzI8TeHixtjo-108" style="edgeStyle=orthogonalEdgeStyle;rounded=0;orthogonalLoop=1;jettySize=auto;html=1;entryX=0.5;entryY=0;entryDx=0;entryDy=0;" edge="1" parent="po867gTpzzI8TeHixtjo-163" source="po867gTpzzI8TeHixtjo-96" target="po867gTpzzI8TeHixtjo-107">
          <mxGeometry relative="1" as="geometry" />
        </mxCell>
        <mxCell id="po867gTpzzI8TeHixtjo-109" value="ใช่" style="edgeLabel;html=1;align=center;verticalAlign=middle;resizable=0;points=[];" vertex="1" connectable="0" parent="po867gTpzzI8TeHixtjo-108">
          <mxGeometry x="-0.6182" y="-1" relative="1" as="geometry">
            <mxPoint as="offset" />
          </mxGeometry>
        </mxCell>
        <mxCell id="po867gTpzzI8TeHixtjo-110" style="edgeStyle=orthogonalEdgeStyle;rounded=0;orthogonalLoop=1;jettySize=auto;html=1;" edge="1" parent="po867gTpzzI8TeHixtjo-163" source="po867gTpzzI8TeHixtjo-111" target="po867gTpzzI8TeHixtjo-106">
          <mxGeometry relative="1" as="geometry" />
        </mxCell>
        <mxCell id="po867gTpzzI8TeHixtjo-111" value="บันทึกข้อมูล&lt;span style=&quot;font-size: medium; text-align: start;&quot;&gt;&lt;/span&gt;" style="rounded=1;whiteSpace=wrap;html=1;" vertex="1" parent="po867gTpzzI8TeHixtjo-163">
          <mxGeometry x="52.07000000000002" y="217.5" width="77.5" height="40" as="geometry" />
        </mxCell>
        <mxCell id="po867gTpzzI8TeHixtjo-112" style="edgeStyle=orthogonalEdgeStyle;rounded=0;orthogonalLoop=1;jettySize=auto;html=1;entryX=1;entryY=0.5;entryDx=0;entryDy=0;" edge="1" parent="po867gTpzzI8TeHixtjo-163" source="po867gTpzzI8TeHixtjo-107" target="po867gTpzzI8TeHixtjo-111">
          <mxGeometry relative="1" as="geometry" />
        </mxCell>
        <mxCell id="po867gTpzzI8TeHixtjo-113" style="edgeStyle=orthogonalEdgeStyle;rounded=0;orthogonalLoop=1;jettySize=auto;html=1;" edge="1" parent="po867gTpzzI8TeHixtjo-163" source="po867gTpzzI8TeHixtjo-114" target="po867gTpzzI8TeHixtjo-90">
          <mxGeometry relative="1" as="geometry">
            <Array as="points">
              <mxPoint x="168.62" y="680" />
              <mxPoint x="318.61999999999995" y="680" />
            </Array>
          </mxGeometry>
        </mxCell>
        <mxCell id="po867gTpzzI8TeHixtjo-114" value="3" style="ellipse;whiteSpace=wrap;html=1;aspect=fixed;" vertex="1" parent="po867gTpzzI8TeHixtjo-163">
          <mxGeometry x="143.72000000000003" y="472.5" width="50" height="50" as="geometry" />
        </mxCell>
        <mxCell id="po867gTpzzI8TeHixtjo-115" style="edgeStyle=orthogonalEdgeStyle;rounded=0;orthogonalLoop=1;jettySize=auto;html=1;entryX=0;entryY=0.5;entryDx=0;entryDy=0;" edge="1" parent="po867gTpzzI8TeHixtjo-163" source="po867gTpzzI8TeHixtjo-99" target="po867gTpzzI8TeHixtjo-114">
          <mxGeometry relative="1" as="geometry">
            <Array as="points">
              <mxPoint y="162.5" />
              <mxPoint y="417.5" />
              <mxPoint x="60" y="417.5" />
              <mxPoint x="60" y="497.5" />
            </Array>
          </mxGeometry>
        </mxCell>
        <mxCell id="po867gTpzzI8TeHixtjo-116" style="edgeStyle=orthogonalEdgeStyle;rounded=0;orthogonalLoop=1;jettySize=auto;html=1;entryX=0;entryY=0;entryDx=0;entryDy=0;" edge="1" parent="po867gTpzzI8TeHixtjo-163" source="po867gTpzzI8TeHixtjo-106" target="po867gTpzzI8TeHixtjo-114">
          <mxGeometry relative="1" as="geometry" />
        </mxCell>
        <mxCell id="po867gTpzzI8TeHixtjo-117" style="edgeStyle=orthogonalEdgeStyle;rounded=0;orthogonalLoop=1;jettySize=auto;html=1;" edge="1" parent="po867gTpzzI8TeHixtjo-163" source="po867gTpzzI8TeHixtjo-118">
          <mxGeometry relative="1" as="geometry">
            <mxPoint x="323.61999999999995" y="340.0000000000002" as="targetPoint" />
          </mxGeometry>
        </mxCell>
        <mxCell id="po867gTpzzI8TeHixtjo-118" value="อัปโหลดไฟล์" style="rounded=1;whiteSpace=wrap;html=1;" vertex="1" parent="po867gTpzzI8TeHixtjo-163">
          <mxGeometry x="223.71999999999997" y="270" width="110" height="42" as="geometry" />
        </mxCell>
        <mxCell id="po867gTpzzI8TeHixtjo-94" style="edgeStyle=orthogonalEdgeStyle;rounded=0;orthogonalLoop=1;jettySize=auto;html=1;" edge="1" parent="po867gTpzzI8TeHixtjo-163" source="po867gTpzzI8TeHixtjo-96" target="po867gTpzzI8TeHixtjo-118">
          <mxGeometry relative="1" as="geometry">
            <mxPoint x="321.84499999999986" y="277.5" as="targetPoint" />
          </mxGeometry>
        </mxCell>
        <mxCell id="po867gTpzzI8TeHixtjo-95" value="ไม่" style="edgeLabel;html=1;align=center;verticalAlign=middle;resizable=0;points=[];" vertex="1" connectable="0" parent="po867gTpzzI8TeHixtjo-94">
          <mxGeometry x="-0.6238" y="2" relative="1" as="geometry">
            <mxPoint as="offset" />
          </mxGeometry>
        </mxCell>
        <mxCell id="po867gTpzzI8TeHixtjo-119" value="" style="group" vertex="1" connectable="0" parent="po867gTpzzI8TeHixtjo-163">
          <mxGeometry x="275.49999999999994" y="450" width="96.25" height="177.5" as="geometry" />
        </mxCell>
        <mxCell id="po867gTpzzI8TeHixtjo-120" value="สร้างหัวข้อการกำกับดูแลกิจการ&lt;span style=&quot;font-size: medium; text-align: start;&quot;&gt;&lt;/span&gt;" style="rounded=1;whiteSpace=wrap;html=1;" vertex="1" parent="po867gTpzzI8TeHixtjo-119">
          <mxGeometry x="-5" width="106.25" height="42.5" as="geometry" />
        </mxCell>
        <mxCell id="po867gTpzzI8TeHixtjo-121" value="สร้างข้อมูล ActivityLog&lt;span style=&quot;font-size: medium; text-align: start;&quot;&gt;&lt;/span&gt;" style="rounded=1;whiteSpace=wrap;html=1;" vertex="1" parent="po867gTpzzI8TeHixtjo-119">
          <mxGeometry x="6.25" y="67.5" width="77.5" height="40" as="geometry" />
        </mxCell>
        <mxCell id="po867gTpzzI8TeHixtjo-122" value="" style="edgeStyle=orthogonalEdgeStyle;rounded=0;orthogonalLoop=1;jettySize=auto;html=1;entryX=0.543;entryY=-0.009;entryDx=0;entryDy=0;entryPerimeter=0;" edge="1" parent="po867gTpzzI8TeHixtjo-119" source="po867gTpzzI8TeHixtjo-120" target="po867gTpzzI8TeHixtjo-121">
          <mxGeometry relative="1" as="geometry" />
        </mxCell>
        <mxCell id="po867gTpzzI8TeHixtjo-123" value="บันทึกข้อมูล&lt;span style=&quot;font-size: medium; text-align: start;&quot;&gt;&lt;/span&gt;" style="rounded=1;whiteSpace=wrap;html=1;" vertex="1" parent="po867gTpzzI8TeHixtjo-119">
          <mxGeometry x="6.25" y="137.5" width="77.5" height="40" as="geometry" />
        </mxCell>
        <mxCell id="po867gTpzzI8TeHixtjo-124" value="" style="edgeStyle=orthogonalEdgeStyle;rounded=0;orthogonalLoop=1;jettySize=auto;html=1;" edge="1" parent="po867gTpzzI8TeHixtjo-119" source="po867gTpzzI8TeHixtjo-121" target="po867gTpzzI8TeHixtjo-123">
          <mxGeometry relative="1" as="geometry" />
        </mxCell>
        <mxCell id="po867gTpzzI8TeHixtjo-125" style="edgeStyle=orthogonalEdgeStyle;rounded=0;orthogonalLoop=1;jettySize=auto;html=1;" edge="1" parent="po867gTpzzI8TeHixtjo-163" source="po867gTpzzI8TeHixtjo-129" target="po867gTpzzI8TeHixtjo-87">
          <mxGeometry relative="1" as="geometry">
            <Array as="points">
              <mxPoint x="369" y="372" />
            </Array>
          </mxGeometry>
        </mxCell>
        <mxCell id="po867gTpzzI8TeHixtjo-126" value="ใช่" style="edgeLabel;html=1;align=center;verticalAlign=middle;resizable=0;points=[];" vertex="1" connectable="0" parent="po867gTpzzI8TeHixtjo-125">
          <mxGeometry x="-0.8996" relative="1" as="geometry">
            <mxPoint as="offset" />
          </mxGeometry>
        </mxCell>
        <mxCell id="po867gTpzzI8TeHixtjo-127" style="edgeStyle=orthogonalEdgeStyle;rounded=0;orthogonalLoop=1;jettySize=auto;html=1;" edge="1" parent="po867gTpzzI8TeHixtjo-163" source="po867gTpzzI8TeHixtjo-129" target="po867gTpzzI8TeHixtjo-120">
          <mxGeometry relative="1" as="geometry" />
        </mxCell>
        <mxCell id="po867gTpzzI8TeHixtjo-128" value="ไม่" style="edgeLabel;html=1;align=center;verticalAlign=middle;resizable=0;points=[];" vertex="1" connectable="0" parent="po867gTpzzI8TeHixtjo-127">
          <mxGeometry x="-0.1659" relative="1" as="geometry">
            <mxPoint y="2" as="offset" />
          </mxGeometry>
        </mxCell>
        <mxCell id="po867gTpzzI8TeHixtjo-129" value="มีไฟล&lt;br&gt;รูปภาพอีกไหม ?" style="rhombus;whiteSpace=wrap;html=1;" vertex="1" parent="po867gTpzzI8TeHixtjo-163">
          <mxGeometry x="291.11999999999995" y="340" width="65" height="65" as="geometry" />
        </mxCell>
        <mxCell id="po867gTpzzI8TeHixtjo-130" value="" style="edgeStyle=orthogonalEdgeStyle;rounded=0;orthogonalLoop=1;jettySize=auto;html=1;" edge="1" parent="po867gTpzzI8TeHixtjo-163" source="po867gTpzzI8TeHixtjo-123" target="po867gTpzzI8TeHixtjo-90">
          <mxGeometry relative="1" as="geometry" />
        </mxCell>
        <mxCell id="po867gTpzzI8TeHixtjo-85" style="edgeStyle=orthogonalEdgeStyle;rounded=0;orthogonalLoop=1;jettySize=auto;html=1;entryX=1;entryY=0.5;entryDx=0;entryDy=0;" edge="1" parent="po867gTpzzI8TeHixtjo-163" source="po867gTpzzI8TeHixtjo-87" target="po867gTpzzI8TeHixtjo-120">
          <mxGeometry relative="1" as="geometry">
            <Array as="points">
              <mxPoint x="392.61999999999995" y="471" />
            </Array>
          </mxGeometry>
        </mxCell>
        <mxCell id="po867gTpzzI8TeHixtjo-86" value="ไม่" style="edgeLabel;html=1;align=center;verticalAlign=middle;resizable=0;points=[];" vertex="1" connectable="0" parent="po867gTpzzI8TeHixtjo-85">
          <mxGeometry x="-0.6813" y="-1" relative="1" as="geometry">
            <mxPoint as="offset" />
          </mxGeometry>
        </mxCell>
      </root>
    </mxGraphModel>
  </diagram>
  <diagram id="qSBz6rACloYCKpzuvNTI" name="Page-4">
    <mxGraphModel dx="1434" dy="764" grid="1" gridSize="10" guides="1" tooltips="1" connect="1" arrows="1" fold="1" page="1" pageScale="1" pageWidth="850" pageHeight="1100" math="0" shadow="0">
      <root>
        <mxCell id="0" />
        <mxCell id="1" parent="0" />
        <mxCell id="FM3JSG5P8la8H75g2BcZ-143" value="เริ่ม" style="ellipse;whiteSpace=wrap;html=1;" vertex="1" parent="1">
          <mxGeometry x="85" y="30" width="80" height="40" as="geometry" />
        </mxCell>
        <mxCell id="FM3JSG5P8la8H75g2BcZ-144" value="ตรวจสอบสิทธิ์การใช้งาน" style="rounded=1;whiteSpace=wrap;html=1;" vertex="1" parent="1">
          <mxGeometry x="55" y="110" width="140" height="30" as="geometry" />
        </mxCell>
        <mxCell id="FM3JSG5P8la8H75g2BcZ-145" value="" style="edgeStyle=orthogonalEdgeStyle;rounded=0;orthogonalLoop=1;jettySize=auto;html=1;" edge="1" parent="1" source="FM3JSG5P8la8H75g2BcZ-143" target="FM3JSG5P8la8H75g2BcZ-144">
          <mxGeometry relative="1" as="geometry" />
        </mxCell>
        <mxCell id="FM3JSG5P8la8H75g2BcZ-146" value="มี ?" style="rhombus;whiteSpace=wrap;html=1;" vertex="1" parent="1">
          <mxGeometry x="95" y="170" width="60" height="60" as="geometry" />
        </mxCell>
        <mxCell id="FM3JSG5P8la8H75g2BcZ-147" value="" style="edgeStyle=orthogonalEdgeStyle;rounded=0;orthogonalLoop=1;jettySize=auto;html=1;" edge="1" parent="1" source="FM3JSG5P8la8H75g2BcZ-144" target="FM3JSG5P8la8H75g2BcZ-146">
          <mxGeometry relative="1" as="geometry" />
        </mxCell>
        <mxCell id="FM3JSG5P8la8H75g2BcZ-148" style="edgeStyle=orthogonalEdgeStyle;rounded=0;orthogonalLoop=1;jettySize=auto;html=1;entryX=-0.022;entryY=0.676;entryDx=0;entryDy=0;entryPerimeter=0;" edge="1" parent="1" source="FM3JSG5P8la8H75g2BcZ-146" target="FM3JSG5P8la8H75g2BcZ-161">
          <mxGeometry relative="1" as="geometry">
            <Array as="points">
              <mxPoint x="125" y="706" />
            </Array>
            <mxPoint x="280" y="740" as="targetPoint" />
          </mxGeometry>
        </mxCell>
        <mxCell id="FM3JSG5P8la8H75g2BcZ-149" value="ไม่" style="edgeLabel;html=1;align=center;verticalAlign=middle;resizable=0;points=[];" vertex="1" connectable="0" parent="FM3JSG5P8la8H75g2BcZ-148">
          <mxGeometry x="-0.8925" y="1" relative="1" as="geometry">
            <mxPoint as="offset" />
          </mxGeometry>
        </mxCell>
        <mxCell id="FM3JSG5P8la8H75g2BcZ-150" value="ตรวจสอบ Account &lt;br&gt;สถานะการใช้งาน" style="rounded=1;whiteSpace=wrap;html=1;" vertex="1" parent="1">
          <mxGeometry x="271.35" y="179" width="170" height="40" as="geometry" />
        </mxCell>
        <mxCell id="FM3JSG5P8la8H75g2BcZ-151" value="" style="edgeStyle=orthogonalEdgeStyle;rounded=0;orthogonalLoop=1;jettySize=auto;html=1;" edge="1" parent="1" source="FM3JSG5P8la8H75g2BcZ-146" target="FM3JSG5P8la8H75g2BcZ-150">
          <mxGeometry relative="1" as="geometry">
            <Array as="points">
              <mxPoint x="235" y="200" />
              <mxPoint x="235" y="200" />
            </Array>
          </mxGeometry>
        </mxCell>
        <mxCell id="FM3JSG5P8la8H75g2BcZ-152" value="ใช่" style="edgeLabel;html=1;align=center;verticalAlign=middle;resizable=0;points=[];" vertex="1" connectable="0" parent="FM3JSG5P8la8H75g2BcZ-151">
          <mxGeometry x="-0.7797" y="-1" relative="1" as="geometry">
            <mxPoint as="offset" />
          </mxGeometry>
        </mxCell>
        <mxCell id="FM3JSG5P8la8H75g2BcZ-153" value="มีใน&lt;br&gt;ระบบ &lt;br&gt;?" style="rhombus;whiteSpace=wrap;html=1;" vertex="1" parent="1">
          <mxGeometry x="349" y="258" width="75" height="70" as="geometry" />
        </mxCell>
        <mxCell id="FM3JSG5P8la8H75g2BcZ-154" value="" style="edgeStyle=orthogonalEdgeStyle;rounded=0;orthogonalLoop=1;jettySize=auto;html=1;" edge="1" parent="1" source="FM3JSG5P8la8H75g2BcZ-150" target="FM3JSG5P8la8H75g2BcZ-153">
          <mxGeometry relative="1" as="geometry" />
        </mxCell>
        <mxCell id="FM3JSG5P8la8H75g2BcZ-155" value="status&lt;br style=&quot;border-color: var(--border-color);&quot;&gt;= 1 ?" style="rhombus;whiteSpace=wrap;html=1;" vertex="1" parent="1">
          <mxGeometry x="377" y="378" width="60" height="60" as="geometry" />
        </mxCell>
        <mxCell id="FM3JSG5P8la8H75g2BcZ-156" value="" style="edgeStyle=orthogonalEdgeStyle;rounded=0;orthogonalLoop=1;jettySize=auto;html=1;" edge="1" parent="1" source="FM3JSG5P8la8H75g2BcZ-153" target="FM3JSG5P8la8H75g2BcZ-155">
          <mxGeometry relative="1" as="geometry" />
        </mxCell>
        <mxCell id="FM3JSG5P8la8H75g2BcZ-157" value="ใช่" style="edgeLabel;html=1;align=center;verticalAlign=middle;resizable=0;points=[];" vertex="1" connectable="0" parent="FM3JSG5P8la8H75g2BcZ-156">
          <mxGeometry x="-0.3254" y="2" relative="1" as="geometry">
            <mxPoint x="-2" as="offset" />
          </mxGeometry>
        </mxCell>
        <mxCell id="FM3JSG5P8la8H75g2BcZ-158" value="Locked&lt;br style=&quot;border-color: var(--border-color);&quot;&gt;= 1 ?&amp;nbsp;" style="rhombus;whiteSpace=wrap;html=1;" vertex="1" parent="1">
          <mxGeometry x="377.75" y="508" width="60" height="60" as="geometry" />
        </mxCell>
        <mxCell id="FM3JSG5P8la8H75g2BcZ-159" value="" style="edgeStyle=orthogonalEdgeStyle;rounded=0;orthogonalLoop=1;jettySize=auto;html=1;" edge="1" parent="1" source="FM3JSG5P8la8H75g2BcZ-155" target="FM3JSG5P8la8H75g2BcZ-158">
          <mxGeometry relative="1" as="geometry" />
        </mxCell>
        <mxCell id="FM3JSG5P8la8H75g2BcZ-160" value="ไม่" style="edgeLabel;html=1;align=center;verticalAlign=middle;resizable=0;points=[];" vertex="1" connectable="0" parent="FM3JSG5P8la8H75g2BcZ-159">
          <mxGeometry x="-0.3745" relative="1" as="geometry">
            <mxPoint as="offset" />
          </mxGeometry>
        </mxCell>
        <mxCell id="FM3JSG5P8la8H75g2BcZ-161" value="1" style="ellipse;whiteSpace=wrap;html=1;aspect=fixed;" vertex="1" parent="1">
          <mxGeometry x="207.5" y="672" width="50" height="50" as="geometry" />
        </mxCell>
        <mxCell id="FM3JSG5P8la8H75g2BcZ-162" style="edgeStyle=orthogonalEdgeStyle;rounded=0;orthogonalLoop=1;jettySize=auto;html=1;exitX=0.492;exitY=0.949;exitDx=0;exitDy=0;exitPerimeter=0;" edge="1" parent="1" source="FM3JSG5P8la8H75g2BcZ-163" target="FM3JSG5P8la8H75g2BcZ-161">
          <mxGeometry relative="1" as="geometry">
            <Array as="points">
              <mxPoint x="176" y="386" />
              <mxPoint x="160" y="386" />
              <mxPoint x="160" y="690" />
            </Array>
          </mxGeometry>
        </mxCell>
        <mxCell id="FM3JSG5P8la8H75g2BcZ-163" value="rerturn Error Code&amp;nbsp;001&lt;span style=&quot;font-size: medium; text-align: start;&quot;&gt;&lt;/span&gt;" style="rounded=1;whiteSpace=wrap;html=1;" vertex="1" parent="1">
          <mxGeometry x="137.5" y="338" width="77.5" height="40" as="geometry" />
        </mxCell>
        <mxCell id="FM3JSG5P8la8H75g2BcZ-164" style="edgeStyle=orthogonalEdgeStyle;rounded=0;orthogonalLoop=1;jettySize=auto;html=1;entryX=1;entryY=1;entryDx=0;entryDy=0;" edge="1" parent="1" source="FM3JSG5P8la8H75g2BcZ-165" target="FM3JSG5P8la8H75g2BcZ-161">
          <mxGeometry relative="1" as="geometry">
            <Array as="points">
              <mxPoint x="312" y="715" />
              <mxPoint x="254" y="715" />
            </Array>
          </mxGeometry>
        </mxCell>
        <mxCell id="FM3JSG5P8la8H75g2BcZ-165" value="rerturn Error Code&amp;nbsp;011&lt;span style=&quot;font-size: medium; text-align: start;&quot;&gt;&lt;/span&gt;" style="rounded=1;whiteSpace=wrap;html=1;" vertex="1" parent="1">
          <mxGeometry x="273.5" y="656" width="77.5" height="40" as="geometry" />
        </mxCell>
        <mxCell id="FM3JSG5P8la8H75g2BcZ-166" value="" style="edgeStyle=orthogonalEdgeStyle;rounded=0;orthogonalLoop=1;jettySize=auto;html=1;entryX=0.467;entryY=0.027;entryDx=0;entryDy=0;entryPerimeter=0;" edge="1" parent="1" source="FM3JSG5P8la8H75g2BcZ-209" target="FM3JSG5P8la8H75g2BcZ-211">
          <mxGeometry relative="1" as="geometry" />
        </mxCell>
        <mxCell id="FM3JSG5P8la8H75g2BcZ-167" style="edgeStyle=orthogonalEdgeStyle;rounded=0;orthogonalLoop=1;jettySize=auto;html=1;" edge="1" parent="1" source="FM3JSG5P8la8H75g2BcZ-168" target="FM3JSG5P8la8H75g2BcZ-161">
          <mxGeometry relative="1" as="geometry">
            <mxPoint x="200" y="640" as="targetPoint" />
            <Array as="points">
              <mxPoint x="219" y="670" />
              <mxPoint x="219" y="670" />
            </Array>
          </mxGeometry>
        </mxCell>
        <mxCell id="FM3JSG5P8la8H75g2BcZ-168" value="rerturn Error Code&amp;nbsp;004&lt;span style=&quot;font-size: medium; text-align: start;&quot;&gt;&lt;/span&gt;" style="rounded=1;whiteSpace=wrap;html=1;" vertex="1" parent="1">
          <mxGeometry x="180" y="478" width="77.5" height="40" as="geometry" />
        </mxCell>
        <mxCell id="FM3JSG5P8la8H75g2BcZ-169" value="" style="edgeStyle=orthogonalEdgeStyle;rounded=0;orthogonalLoop=1;jettySize=auto;html=1;" edge="1" parent="1" source="FM3JSG5P8la8H75g2BcZ-155" target="FM3JSG5P8la8H75g2BcZ-204">
          <mxGeometry relative="1" as="geometry">
            <mxPoint x="310" y="390" as="targetPoint" />
          </mxGeometry>
        </mxCell>
        <mxCell id="FM3JSG5P8la8H75g2BcZ-170" value="ใช่" style="edgeLabel;html=1;align=center;verticalAlign=middle;resizable=0;points=[];" vertex="1" connectable="0" parent="FM3JSG5P8la8H75g2BcZ-169">
          <mxGeometry x="-0.4608" y="2" relative="1" as="geometry">
            <mxPoint as="offset" />
          </mxGeometry>
        </mxCell>
        <mxCell id="FM3JSG5P8la8H75g2BcZ-171" value="" style="edgeStyle=orthogonalEdgeStyle;rounded=0;orthogonalLoop=1;jettySize=auto;html=1;entryX=0.1;entryY=0.5;entryDx=0;entryDy=0;entryPerimeter=0;" edge="1" parent="1" source="FM3JSG5P8la8H75g2BcZ-158" target="FM3JSG5P8la8H75g2BcZ-175">
          <mxGeometry relative="1" as="geometry">
            <mxPoint x="429" y="538" as="targetPoint" />
            <Array as="points">
              <mxPoint x="470" y="538" />
              <mxPoint x="470" y="364" />
            </Array>
          </mxGeometry>
        </mxCell>
        <mxCell id="FM3JSG5P8la8H75g2BcZ-172" value="" style="edgeStyle=orthogonalEdgeStyle;rounded=0;orthogonalLoop=1;jettySize=auto;html=1;" edge="1" parent="1" source="FM3JSG5P8la8H75g2BcZ-175" target="FM3JSG5P8la8H75g2BcZ-176">
          <mxGeometry relative="1" as="geometry">
            <mxPoint x="545" y="538" as="targetPoint" />
            <Array as="points">
              <mxPoint x="600" y="364" />
            </Array>
          </mxGeometry>
        </mxCell>
        <mxCell id="FM3JSG5P8la8H75g2BcZ-173" value="ไม่" style="edgeLabel;html=1;align=center;verticalAlign=middle;resizable=0;points=[];" vertex="1" connectable="0" parent="FM3JSG5P8la8H75g2BcZ-172">
          <mxGeometry x="-0.3115" y="3" relative="1" as="geometry">
            <mxPoint as="offset" />
          </mxGeometry>
        </mxCell>
        <mxCell id="FM3JSG5P8la8H75g2BcZ-174" style="edgeStyle=orthogonalEdgeStyle;rounded=0;orthogonalLoop=1;jettySize=auto;html=1;" edge="1" parent="1" source="FM3JSG5P8la8H75g2BcZ-175" target="FM3JSG5P8la8H75g2BcZ-275">
          <mxGeometry relative="1" as="geometry">
            <Array as="points">
              <mxPoint x="519" y="580" />
              <mxPoint x="476" y="580" />
            </Array>
          </mxGeometry>
        </mxCell>
        <mxCell id="FM3JSG5P8la8H75g2BcZ-175" value="Super&lt;br&gt;Admin ?" style="rhombus;whiteSpace=wrap;html=1;" vertex="1" parent="1">
          <mxGeometry x="486.25" y="328" width="66" height="72" as="geometry" />
        </mxCell>
        <mxCell id="FM3JSG5P8la8H75g2BcZ-176" value="ตรวจสอบสิทธิ์การใช้งาน Company นี้ไหม&lt;span style=&quot;font-size: medium; text-align: start;&quot;&gt;&lt;/span&gt;" style="rounded=1;whiteSpace=wrap;html=1;" vertex="1" parent="1">
          <mxGeometry x="545" y="518" width="110" height="42" as="geometry" />
        </mxCell>
        <mxCell id="FM3JSG5P8la8H75g2BcZ-177" value="มี ?" style="rhombus;whiteSpace=wrap;html=1;" vertex="1" parent="1">
          <mxGeometry x="567" y="600" width="66" height="72" as="geometry" />
        </mxCell>
        <mxCell id="FM3JSG5P8la8H75g2BcZ-178" value="" style="edgeStyle=orthogonalEdgeStyle;rounded=0;orthogonalLoop=1;jettySize=auto;html=1;" edge="1" parent="1" source="FM3JSG5P8la8H75g2BcZ-176" target="FM3JSG5P8la8H75g2BcZ-177">
          <mxGeometry relative="1" as="geometry" />
        </mxCell>
        <mxCell id="FM3JSG5P8la8H75g2BcZ-179" value="Company &lt;br&gt;มีในระบบ&lt;br&gt;ไหม ?" style="rhombus;whiteSpace=wrap;html=1;" vertex="1" parent="1">
          <mxGeometry x="555" y="730" width="90" height="80" as="geometry" />
        </mxCell>
        <mxCell id="FM3JSG5P8la8H75g2BcZ-180" value="" style="edgeStyle=orthogonalEdgeStyle;rounded=0;orthogonalLoop=1;jettySize=auto;html=1;" edge="1" parent="1" source="FM3JSG5P8la8H75g2BcZ-177" target="FM3JSG5P8la8H75g2BcZ-179">
          <mxGeometry relative="1" as="geometry" />
        </mxCell>
        <mxCell id="FM3JSG5P8la8H75g2BcZ-181" value="ใช่" style="edgeLabel;html=1;align=center;verticalAlign=middle;resizable=0;points=[];" vertex="1" connectable="0" parent="FM3JSG5P8la8H75g2BcZ-180">
          <mxGeometry x="-0.2859" relative="1" as="geometry">
            <mxPoint as="offset" />
          </mxGeometry>
        </mxCell>
        <mxCell id="FM3JSG5P8la8H75g2BcZ-182" style="edgeStyle=orthogonalEdgeStyle;rounded=0;orthogonalLoop=1;jettySize=auto;html=1;" edge="1" parent="1">
          <mxGeometry relative="1" as="geometry">
            <mxPoint x="747.5" y="636" as="sourcePoint" />
            <mxPoint x="770" y="636" as="targetPoint" />
          </mxGeometry>
        </mxCell>
        <mxCell id="FM3JSG5P8la8H75g2BcZ-183" style="edgeStyle=orthogonalEdgeStyle;rounded=0;orthogonalLoop=1;jettySize=auto;html=1;" edge="1" parent="1" source="FM3JSG5P8la8H75g2BcZ-177">
          <mxGeometry relative="1" as="geometry">
            <mxPoint x="670" y="636" as="targetPoint" />
          </mxGeometry>
        </mxCell>
        <mxCell id="FM3JSG5P8la8H75g2BcZ-184" value="ไม่" style="edgeLabel;html=1;align=center;verticalAlign=middle;resizable=0;points=[];" vertex="1" connectable="0" parent="FM3JSG5P8la8H75g2BcZ-183">
          <mxGeometry x="-0.0865" y="2" relative="1" as="geometry">
            <mxPoint as="offset" />
          </mxGeometry>
        </mxCell>
        <mxCell id="FM3JSG5P8la8H75g2BcZ-185" style="edgeStyle=orthogonalEdgeStyle;rounded=0;orthogonalLoop=1;jettySize=auto;html=1;entryX=1;entryY=0.5;entryDx=0;entryDy=0;" edge="1" parent="1" source="FM3JSG5P8la8H75g2BcZ-187" target="FM3JSG5P8la8H75g2BcZ-275">
          <mxGeometry relative="1" as="geometry">
            <Array as="points">
              <mxPoint x="550" y="890" />
              <mxPoint x="550" y="700" />
            </Array>
          </mxGeometry>
        </mxCell>
        <mxCell id="FM3JSG5P8la8H75g2BcZ-186" value="ใช่" style="edgeLabel;html=1;align=center;verticalAlign=middle;resizable=0;points=[];" vertex="1" connectable="0" parent="FM3JSG5P8la8H75g2BcZ-185">
          <mxGeometry x="-0.0994" relative="1" as="geometry">
            <mxPoint as="offset" />
          </mxGeometry>
        </mxCell>
        <mxCell id="FM3JSG5P8la8H75g2BcZ-187" value="Company &lt;br&gt;Active ?" style="rhombus;whiteSpace=wrap;html=1;" vertex="1" parent="1">
          <mxGeometry x="555" y="850" width="90" height="80" as="geometry" />
        </mxCell>
        <mxCell id="FM3JSG5P8la8H75g2BcZ-188" value="ใช่" style="edgeStyle=orthogonalEdgeStyle;rounded=0;orthogonalLoop=1;jettySize=auto;html=1;" edge="1" parent="1" source="FM3JSG5P8la8H75g2BcZ-179" target="FM3JSG5P8la8H75g2BcZ-187">
          <mxGeometry relative="1" as="geometry" />
        </mxCell>
        <mxCell id="FM3JSG5P8la8H75g2BcZ-189" value="" style="edgeStyle=orthogonalEdgeStyle;rounded=0;orthogonalLoop=1;jettySize=auto;html=1;" edge="1" parent="1" source="FM3JSG5P8la8H75g2BcZ-179">
          <mxGeometry relative="1" as="geometry">
            <mxPoint x="695" y="770" as="targetPoint" />
          </mxGeometry>
        </mxCell>
        <mxCell id="FM3JSG5P8la8H75g2BcZ-190" value="ไม่" style="edgeLabel;html=1;align=center;verticalAlign=middle;resizable=0;points=[];" vertex="1" connectable="0" parent="FM3JSG5P8la8H75g2BcZ-189">
          <mxGeometry x="-0.1127" relative="1" as="geometry">
            <mxPoint as="offset" />
          </mxGeometry>
        </mxCell>
        <mxCell id="FM3JSG5P8la8H75g2BcZ-191" value="" style="edgeStyle=orthogonalEdgeStyle;rounded=0;orthogonalLoop=1;jettySize=auto;html=1;" edge="1" parent="1" source="FM3JSG5P8la8H75g2BcZ-187" target="FM3JSG5P8la8H75g2BcZ-224">
          <mxGeometry relative="1" as="geometry">
            <mxPoint x="695" y="890" as="targetPoint" />
          </mxGeometry>
        </mxCell>
        <mxCell id="FM3JSG5P8la8H75g2BcZ-192" value="ไม่" style="edgeLabel;html=1;align=center;verticalAlign=middle;resizable=0;points=[];" vertex="1" connectable="0" parent="FM3JSG5P8la8H75g2BcZ-191">
          <mxGeometry x="-0.2152" y="2" relative="1" as="geometry">
            <mxPoint as="offset" />
          </mxGeometry>
        </mxCell>
        <mxCell id="FM3JSG5P8la8H75g2BcZ-193" style="edgeStyle=orthogonalEdgeStyle;rounded=0;orthogonalLoop=1;jettySize=auto;html=1;entryX=1;entryY=0.5;entryDx=0;entryDy=0;" edge="1" parent="1" source="FM3JSG5P8la8H75g2BcZ-194" target="FM3JSG5P8la8H75g2BcZ-232">
          <mxGeometry relative="1" as="geometry">
            <Array as="points">
              <mxPoint x="734" y="1885" />
            </Array>
          </mxGeometry>
        </mxCell>
        <mxCell id="FM3JSG5P8la8H75g2BcZ-194" value="2" style="ellipse;whiteSpace=wrap;html=1;aspect=fixed;" vertex="1" parent="1">
          <mxGeometry x="708.75" y="980" width="50" height="50" as="geometry" />
        </mxCell>
        <mxCell id="FM3JSG5P8la8H75g2BcZ-195" style="edgeStyle=orthogonalEdgeStyle;rounded=0;orthogonalLoop=1;jettySize=auto;html=1;entryX=1;entryY=0.5;entryDx=0;entryDy=0;" edge="1" parent="1" source="FM3JSG5P8la8H75g2BcZ-214" target="FM3JSG5P8la8H75g2BcZ-194">
          <mxGeometry relative="1" as="geometry">
            <mxPoint x="795" y="790" as="targetPoint" />
            <Array as="points">
              <mxPoint x="920" y="702" />
              <mxPoint x="920" y="1005" />
            </Array>
            <mxPoint x="810.0285714285715" y="656" as="sourcePoint" />
          </mxGeometry>
        </mxCell>
        <mxCell id="FM3JSG5P8la8H75g2BcZ-196" style="edgeStyle=orthogonalEdgeStyle;rounded=0;orthogonalLoop=1;jettySize=auto;html=1;entryX=0;entryY=0.5;entryDx=0;entryDy=0;" edge="1" parent="1" target="FM3JSG5P8la8H75g2BcZ-220">
          <mxGeometry relative="1" as="geometry">
            <Array as="points">
              <mxPoint x="790" y="770" />
              <mxPoint x="790" y="770" />
            </Array>
            <mxPoint x="772.5" y="770.037037037037" as="sourcePoint" />
          </mxGeometry>
        </mxCell>
        <mxCell id="FM3JSG5P8la8H75g2BcZ-197" value="" style="edgeStyle=orthogonalEdgeStyle;rounded=0;orthogonalLoop=1;jettySize=auto;html=1;entryX=0.5;entryY=0;entryDx=0;entryDy=0;" edge="1" parent="1" source="FM3JSG5P8la8H75g2BcZ-198" target="FM3JSG5P8la8H75g2BcZ-163">
          <mxGeometry relative="1" as="geometry" />
        </mxCell>
        <mxCell id="FM3JSG5P8la8H75g2BcZ-198" value="บันทึกข้อมูล&lt;span style=&quot;font-size: medium; text-align: start;&quot;&gt;&lt;/span&gt;" style="rounded=1;whiteSpace=wrap;html=1;" vertex="1" parent="1">
          <mxGeometry x="137.5" y="273" width="77.5" height="40" as="geometry" />
        </mxCell>
        <mxCell id="FM3JSG5P8la8H75g2BcZ-199" value="" style="edgeStyle=orthogonalEdgeStyle;rounded=0;orthogonalLoop=1;jettySize=auto;html=1;" edge="1" parent="1" source="FM3JSG5P8la8H75g2BcZ-153" target="FM3JSG5P8la8H75g2BcZ-202">
          <mxGeometry relative="1" as="geometry">
            <mxPoint x="169" y="348" as="targetPoint" />
            <mxPoint x="319" y="293" as="sourcePoint" />
          </mxGeometry>
        </mxCell>
        <mxCell id="FM3JSG5P8la8H75g2BcZ-200" value="ไม่" style="edgeLabel;html=1;align=center;verticalAlign=middle;resizable=0;points=[];" vertex="1" connectable="0" parent="FM3JSG5P8la8H75g2BcZ-199">
          <mxGeometry x="-0.6573" y="2" relative="1" as="geometry">
            <mxPoint as="offset" />
          </mxGeometry>
        </mxCell>
        <mxCell id="FM3JSG5P8la8H75g2BcZ-201" style="edgeStyle=orthogonalEdgeStyle;rounded=0;orthogonalLoop=1;jettySize=auto;html=1;" edge="1" parent="1" source="FM3JSG5P8la8H75g2BcZ-202" target="FM3JSG5P8la8H75g2BcZ-198">
          <mxGeometry relative="1" as="geometry" />
        </mxCell>
        <mxCell id="FM3JSG5P8la8H75g2BcZ-202" value="สร้างข้อมูล ActivityLog&lt;span style=&quot;font-size: medium; text-align: start;&quot;&gt;&lt;/span&gt;" style="rounded=1;whiteSpace=wrap;html=1;" vertex="1" parent="1">
          <mxGeometry x="240" y="273" width="77.5" height="40" as="geometry" />
        </mxCell>
        <mxCell id="FM3JSG5P8la8H75g2BcZ-203" style="edgeStyle=orthogonalEdgeStyle;rounded=0;orthogonalLoop=1;jettySize=auto;html=1;" edge="1" parent="1" source="FM3JSG5P8la8H75g2BcZ-204" target="FM3JSG5P8la8H75g2BcZ-206">
          <mxGeometry relative="1" as="geometry" />
        </mxCell>
        <mxCell id="FM3JSG5P8la8H75g2BcZ-204" value="สร้างข้อมูล ActivityLog&lt;span style=&quot;font-size: medium; text-align: start;&quot;&gt;&lt;/span&gt;" style="rounded=1;whiteSpace=wrap;html=1;" vertex="1" parent="1">
          <mxGeometry x="271.35" y="388" width="77.5" height="40" as="geometry" />
        </mxCell>
        <mxCell id="FM3JSG5P8la8H75g2BcZ-205" style="edgeStyle=orthogonalEdgeStyle;rounded=0;orthogonalLoop=1;jettySize=auto;html=1;entryX=0.5;entryY=0;entryDx=0;entryDy=0;" edge="1" parent="1" source="FM3JSG5P8la8H75g2BcZ-206" target="FM3JSG5P8la8H75g2BcZ-168">
          <mxGeometry relative="1" as="geometry">
            <Array as="points">
              <mxPoint x="204" y="448" />
            </Array>
          </mxGeometry>
        </mxCell>
        <mxCell id="FM3JSG5P8la8H75g2BcZ-206" value="บันทึกข้อมูล&lt;span style=&quot;font-size: medium; text-align: start;&quot;&gt;&lt;/span&gt;" style="rounded=1;whiteSpace=wrap;html=1;" vertex="1" parent="1">
          <mxGeometry x="180" y="388" width="77.5" height="40" as="geometry" />
        </mxCell>
        <mxCell id="FM3JSG5P8la8H75g2BcZ-207" value="" style="edgeStyle=orthogonalEdgeStyle;rounded=0;orthogonalLoop=1;jettySize=auto;html=1;" edge="1" parent="1" source="FM3JSG5P8la8H75g2BcZ-158" target="FM3JSG5P8la8H75g2BcZ-209">
          <mxGeometry relative="1" as="geometry">
            <mxPoint x="378" y="538" as="sourcePoint" />
            <mxPoint x="338" y="595" as="targetPoint" />
          </mxGeometry>
        </mxCell>
        <mxCell id="FM3JSG5P8la8H75g2BcZ-208" value="ใช่" style="edgeLabel;html=1;align=center;verticalAlign=middle;resizable=0;points=[];" vertex="1" connectable="0" parent="FM3JSG5P8la8H75g2BcZ-207">
          <mxGeometry x="-0.4608" y="1" relative="1" as="geometry">
            <mxPoint as="offset" />
          </mxGeometry>
        </mxCell>
        <mxCell id="FM3JSG5P8la8H75g2BcZ-209" value="สร้างข้อมูล ActivityLog&lt;span style=&quot;font-size: medium; text-align: start;&quot;&gt;&lt;/span&gt;" style="rounded=1;whiteSpace=wrap;html=1;" vertex="1" parent="1">
          <mxGeometry x="271.35" y="518" width="77.5" height="40" as="geometry" />
        </mxCell>
        <mxCell id="FM3JSG5P8la8H75g2BcZ-210" value="" style="edgeStyle=orthogonalEdgeStyle;rounded=0;orthogonalLoop=1;jettySize=auto;html=1;" edge="1" parent="1" source="FM3JSG5P8la8H75g2BcZ-211" target="FM3JSG5P8la8H75g2BcZ-165">
          <mxGeometry relative="1" as="geometry" />
        </mxCell>
        <mxCell id="FM3JSG5P8la8H75g2BcZ-211" value="บันทึกข้อมูล&lt;span style=&quot;font-size: medium; text-align: start;&quot;&gt;&lt;/span&gt;" style="rounded=1;whiteSpace=wrap;html=1;" vertex="1" parent="1">
          <mxGeometry x="273.5" y="590" width="77.5" height="40" as="geometry" />
        </mxCell>
        <mxCell id="FM3JSG5P8la8H75g2BcZ-212" style="edgeStyle=orthogonalEdgeStyle;rounded=0;orthogonalLoop=1;jettySize=auto;html=1;entryX=0.5;entryY=0;entryDx=0;entryDy=0;" edge="1" parent="1" source="FM3JSG5P8la8H75g2BcZ-213" target="FM3JSG5P8la8H75g2BcZ-214">
          <mxGeometry relative="1" as="geometry" />
        </mxCell>
        <mxCell id="FM3JSG5P8la8H75g2BcZ-213" value="บันทึกข้อมูล" style="rounded=1;whiteSpace=wrap;html=1;" vertex="1" parent="1">
          <mxGeometry x="770" y="616" width="77.5" height="40" as="geometry" />
        </mxCell>
        <mxCell id="FM3JSG5P8la8H75g2BcZ-214" value="rerturn Error Code&amp;nbsp;002&lt;span style=&quot;font-size: medium; text-align: start;&quot;&gt;&lt;/span&gt;" style="rounded=1;whiteSpace=wrap;html=1;" vertex="1" parent="1">
          <mxGeometry x="770" y="682" width="77.5" height="40" as="geometry" />
        </mxCell>
        <mxCell id="FM3JSG5P8la8H75g2BcZ-215" value="สร้างข้อมูล ActivityLog&lt;span style=&quot;font-size: medium; text-align: start;&quot;&gt;&lt;/span&gt;" style="rounded=1;whiteSpace=wrap;html=1;" vertex="1" parent="1">
          <mxGeometry x="670" y="616" width="77.5" height="40" as="geometry" />
        </mxCell>
        <mxCell id="FM3JSG5P8la8H75g2BcZ-216" style="edgeStyle=orthogonalEdgeStyle;rounded=0;orthogonalLoop=1;jettySize=auto;html=1;" edge="1" parent="1" source="FM3JSG5P8la8H75g2BcZ-217">
          <mxGeometry relative="1" as="geometry">
            <mxPoint x="920" y="830" as="targetPoint" />
          </mxGeometry>
        </mxCell>
        <mxCell id="FM3JSG5P8la8H75g2BcZ-217" value="rerturn Error Code&amp;nbsp;007&lt;span style=&quot;font-size: medium; text-align: start;&quot;&gt;&lt;/span&gt;" style="rounded=1;whiteSpace=wrap;html=1;" vertex="1" parent="1">
          <mxGeometry x="800" y="810" width="77.5" height="40" as="geometry" />
        </mxCell>
        <mxCell id="FM3JSG5P8la8H75g2BcZ-218" value="สร้างข้อมูล ActivityLog&lt;span style=&quot;font-size: medium; text-align: start;&quot;&gt;&lt;/span&gt;" style="rounded=1;whiteSpace=wrap;html=1;" vertex="1" parent="1">
          <mxGeometry x="695" y="750" width="77.5" height="40" as="geometry" />
        </mxCell>
        <mxCell id="FM3JSG5P8la8H75g2BcZ-219" style="edgeStyle=orthogonalEdgeStyle;rounded=0;orthogonalLoop=1;jettySize=auto;html=1;" edge="1" parent="1" source="FM3JSG5P8la8H75g2BcZ-220" target="FM3JSG5P8la8H75g2BcZ-217">
          <mxGeometry relative="1" as="geometry" />
        </mxCell>
        <mxCell id="FM3JSG5P8la8H75g2BcZ-220" value="บันทึกข้อมูล" style="rounded=1;whiteSpace=wrap;html=1;" vertex="1" parent="1">
          <mxGeometry x="800" y="750" width="77.5" height="40" as="geometry" />
        </mxCell>
        <mxCell id="FM3JSG5P8la8H75g2BcZ-221" style="edgeStyle=orthogonalEdgeStyle;rounded=0;orthogonalLoop=1;jettySize=auto;html=1;" edge="1" parent="1" source="FM3JSG5P8la8H75g2BcZ-222" target="FM3JSG5P8la8H75g2BcZ-194">
          <mxGeometry relative="1" as="geometry">
            <mxPoint x="839" y="1000" as="targetPoint" />
          </mxGeometry>
        </mxCell>
        <mxCell id="FM3JSG5P8la8H75g2BcZ-222" value="rerturn Error Code&amp;nbsp;051&lt;span style=&quot;font-size: medium; text-align: start;&quot;&gt;&lt;/span&gt;" style="rounded=1;whiteSpace=wrap;html=1;" vertex="1" parent="1">
          <mxGeometry x="800" y="930" width="77.5" height="40" as="geometry" />
        </mxCell>
        <mxCell id="FM3JSG5P8la8H75g2BcZ-223" style="edgeStyle=orthogonalEdgeStyle;rounded=0;orthogonalLoop=1;jettySize=auto;html=1;entryX=-0.036;entryY=0.462;entryDx=0;entryDy=0;entryPerimeter=0;" edge="1" parent="1" source="FM3JSG5P8la8H75g2BcZ-224" target="FM3JSG5P8la8H75g2BcZ-226">
          <mxGeometry relative="1" as="geometry" />
        </mxCell>
        <mxCell id="FM3JSG5P8la8H75g2BcZ-224" value="สร้างข้อมูล ActivityLog&lt;span style=&quot;font-size: medium; text-align: start;&quot;&gt;&lt;/span&gt;" style="rounded=1;whiteSpace=wrap;html=1;" vertex="1" parent="1">
          <mxGeometry x="692.5" y="870" width="77.5" height="40" as="geometry" />
        </mxCell>
        <mxCell id="FM3JSG5P8la8H75g2BcZ-225" style="edgeStyle=orthogonalEdgeStyle;rounded=0;orthogonalLoop=1;jettySize=auto;html=1;" edge="1" parent="1" source="FM3JSG5P8la8H75g2BcZ-226" target="FM3JSG5P8la8H75g2BcZ-222">
          <mxGeometry relative="1" as="geometry" />
        </mxCell>
        <mxCell id="FM3JSG5P8la8H75g2BcZ-226" value="บันทึกข้อมูล" style="rounded=1;whiteSpace=wrap;html=1;" vertex="1" parent="1">
          <mxGeometry x="800" y="870" width="77.5" height="40" as="geometry" />
        </mxCell>
        <mxCell id="FM3JSG5P8la8H75g2BcZ-227" style="edgeStyle=orthogonalEdgeStyle;rounded=0;orthogonalLoop=1;jettySize=auto;html=1;entryX=1;entryY=0.5;entryDx=0;entryDy=0;" edge="1" parent="1" source="FM3JSG5P8la8H75g2BcZ-229" target="FM3JSG5P8la8H75g2BcZ-262">
          <mxGeometry relative="1" as="geometry">
            <Array as="points">
              <mxPoint x="477.61999999999995" y="1631" />
            </Array>
          </mxGeometry>
        </mxCell>
        <mxCell id="FM3JSG5P8la8H75g2BcZ-228" value="ไม่" style="edgeLabel;html=1;align=center;verticalAlign=middle;resizable=0;points=[];" vertex="1" connectable="0" parent="FM3JSG5P8la8H75g2BcZ-227">
          <mxGeometry x="-0.6813" y="-1" relative="1" as="geometry">
            <mxPoint as="offset" />
          </mxGeometry>
        </mxCell>
        <mxCell id="FM3JSG5P8la8H75g2BcZ-229" value="Picture?" style="rhombus;whiteSpace=wrap;html=1;" vertex="1" parent="1">
          <mxGeometry x="447.34" y="1160" width="60" height="60" as="geometry" />
        </mxCell>
        <mxCell id="FM3JSG5P8la8H75g2BcZ-230" style="edgeStyle=orthogonalEdgeStyle;rounded=0;orthogonalLoop=1;jettySize=auto;html=1;entryX=0.5;entryY=0;entryDx=0;entryDy=0;" edge="1" parent="1" source="FM3JSG5P8la8H75g2BcZ-229" target="FM3JSG5P8la8H75g2BcZ-235">
          <mxGeometry relative="1" as="geometry">
            <mxPoint x="477.34" y="1255" as="targetPoint" />
          </mxGeometry>
        </mxCell>
        <mxCell id="FM3JSG5P8la8H75g2BcZ-231" value="ใช่" style="edgeLabel;html=1;align=center;verticalAlign=middle;resizable=0;points=[];" vertex="1" connectable="0" parent="FM3JSG5P8la8H75g2BcZ-230">
          <mxGeometry x="-0.1526" y="1" relative="1" as="geometry">
            <mxPoint as="offset" />
          </mxGeometry>
        </mxCell>
        <mxCell id="FM3JSG5P8la8H75g2BcZ-232" value="สิ้นสุด" style="ellipse;whiteSpace=wrap;html=1;" vertex="1" parent="1">
          <mxGeometry x="390.61999999999995" y="1860" width="100" height="50" as="geometry" />
        </mxCell>
        <mxCell id="FM3JSG5P8la8H75g2BcZ-233" style="edgeStyle=orthogonalEdgeStyle;rounded=0;orthogonalLoop=1;jettySize=auto;html=1;" edge="1" parent="1" source="FM3JSG5P8la8H75g2BcZ-234" target="FM3JSG5P8la8H75g2BcZ-232">
          <mxGeometry relative="1" as="geometry">
            <Array as="points">
              <mxPoint x="173.62" y="1885" />
              <mxPoint x="173.62" y="1885" />
            </Array>
          </mxGeometry>
        </mxCell>
        <mxCell id="FM3JSG5P8la8H75g2BcZ-234" value="1" style="ellipse;whiteSpace=wrap;html=1;aspect=fixed;" vertex="1" parent="1">
          <mxGeometry x="85" y="1860" width="50" height="50" as="geometry" />
        </mxCell>
        <mxCell id="FM3JSG5P8la8H75g2BcZ-235" value="ไฟล&lt;br&gt;รูปภาพ ?" style="rhombus;whiteSpace=wrap;html=1;" vertex="1" parent="1">
          <mxGeometry x="331.21999999999997" y="1220" width="65" height="65" as="geometry" />
        </mxCell>
        <mxCell id="FM3JSG5P8la8H75g2BcZ-236" style="edgeStyle=orthogonalEdgeStyle;rounded=0;orthogonalLoop=1;jettySize=auto;html=1;" edge="1" parent="1" source="FM3JSG5P8la8H75g2BcZ-238" target="FM3JSG5P8la8H75g2BcZ-260">
          <mxGeometry relative="1" as="geometry">
            <mxPoint x="406.84499999999986" y="1437.5" as="targetPoint" />
          </mxGeometry>
        </mxCell>
        <mxCell id="FM3JSG5P8la8H75g2BcZ-237" value="ไม่" style="edgeLabel;html=1;align=center;verticalAlign=middle;resizable=0;points=[];" vertex="1" connectable="0" parent="FM3JSG5P8la8H75g2BcZ-236">
          <mxGeometry x="-0.6238" y="2" relative="1" as="geometry">
            <mxPoint as="offset" />
          </mxGeometry>
        </mxCell>
        <mxCell id="FM3JSG5P8la8H75g2BcZ-238" value="ขนาดไฟล&lt;br&gt;&amp;nbsp;&amp;gt; 50mb ?" style="rhombus;whiteSpace=wrap;html=1;" vertex="1" parent="1">
          <mxGeometry x="323.71999999999997" y="1307.5" width="80" height="70" as="geometry" />
        </mxCell>
        <mxCell id="FM3JSG5P8la8H75g2BcZ-239" value="" style="edgeStyle=orthogonalEdgeStyle;rounded=0;orthogonalLoop=1;jettySize=auto;html=1;" edge="1" parent="1" source="FM3JSG5P8la8H75g2BcZ-235" target="FM3JSG5P8la8H75g2BcZ-238">
          <mxGeometry relative="1" as="geometry">
            <Array as="points">
              <mxPoint x="362.71999999999997" y="1305.5" />
              <mxPoint x="363.71999999999997" y="1305.5" />
            </Array>
          </mxGeometry>
        </mxCell>
        <mxCell id="FM3JSG5P8la8H75g2BcZ-240" value="ใช่" style="edgeLabel;html=1;align=center;verticalAlign=middle;resizable=0;points=[];" vertex="1" connectable="0" parent="FM3JSG5P8la8H75g2BcZ-239">
          <mxGeometry x="0.4745" y="1" relative="1" as="geometry">
            <mxPoint as="offset" />
          </mxGeometry>
        </mxCell>
        <mxCell id="FM3JSG5P8la8H75g2BcZ-241" value="rerturn Error Code 043&lt;span style=&quot;font-size: medium; text-align: start;&quot;&gt;&lt;/span&gt;" style="rounded=1;whiteSpace=wrap;html=1;" vertex="1" parent="1">
          <mxGeometry x="137.07000000000002" y="1302.5" width="77.5" height="40" as="geometry" />
        </mxCell>
        <mxCell id="FM3JSG5P8la8H75g2BcZ-242" value="สร้างข้อมูล ActivityLog&lt;span style=&quot;font-size: medium; text-align: start;&quot;&gt;&lt;/span&gt;" style="rounded=1;whiteSpace=wrap;html=1;" vertex="1" parent="1">
          <mxGeometry x="228.72000000000003" y="1232.5" width="77.5" height="40" as="geometry" />
        </mxCell>
        <mxCell id="FM3JSG5P8la8H75g2BcZ-243" style="edgeStyle=orthogonalEdgeStyle;rounded=0;orthogonalLoop=1;jettySize=auto;html=1;" edge="1" parent="1" source="FM3JSG5P8la8H75g2BcZ-235" target="FM3JSG5P8la8H75g2BcZ-242">
          <mxGeometry relative="1" as="geometry" />
        </mxCell>
        <mxCell id="FM3JSG5P8la8H75g2BcZ-244" value="ไม่" style="edgeLabel;html=1;align=center;verticalAlign=middle;resizable=0;points=[];" vertex="1" connectable="0" parent="FM3JSG5P8la8H75g2BcZ-243">
          <mxGeometry x="0.5378" relative="1" as="geometry">
            <mxPoint as="offset" />
          </mxGeometry>
        </mxCell>
        <mxCell id="FM3JSG5P8la8H75g2BcZ-245" value="" style="edgeStyle=orthogonalEdgeStyle;rounded=0;orthogonalLoop=1;jettySize=auto;html=1;entryX=0.5;entryY=0;entryDx=0;entryDy=0;" edge="1" parent="1" source="FM3JSG5P8la8H75g2BcZ-246" target="FM3JSG5P8la8H75g2BcZ-241">
          <mxGeometry relative="1" as="geometry" />
        </mxCell>
        <mxCell id="FM3JSG5P8la8H75g2BcZ-246" value="บันทึกข้อมูล&lt;span style=&quot;font-size: medium; text-align: start;&quot;&gt;&lt;/span&gt;" style="rounded=1;whiteSpace=wrap;html=1;" vertex="1" parent="1">
          <mxGeometry x="122.72000000000003" y="1232.5" width="77.5" height="40" as="geometry" />
        </mxCell>
        <mxCell id="FM3JSG5P8la8H75g2BcZ-247" value="" style="edgeStyle=orthogonalEdgeStyle;rounded=0;orthogonalLoop=1;jettySize=auto;html=1;" edge="1" parent="1" source="FM3JSG5P8la8H75g2BcZ-242" target="FM3JSG5P8la8H75g2BcZ-246">
          <mxGeometry relative="1" as="geometry" />
        </mxCell>
        <mxCell id="FM3JSG5P8la8H75g2BcZ-248" value="rerturn Error Code 044&lt;span style=&quot;font-size: medium; text-align: start;&quot;&gt;&lt;/span&gt;" style="rounded=1;whiteSpace=wrap;html=1;" vertex="1" parent="1">
          <mxGeometry x="137.07000000000002" y="1447.5" width="77.5" height="40" as="geometry" />
        </mxCell>
        <mxCell id="FM3JSG5P8la8H75g2BcZ-249" value="สร้างข้อมูล ActivityLog&lt;span style=&quot;font-size: medium; text-align: start;&quot;&gt;&lt;/span&gt;" style="rounded=1;whiteSpace=wrap;html=1;" vertex="1" parent="1">
          <mxGeometry x="238.72000000000003" y="1377.5" width="77.5" height="40" as="geometry" />
        </mxCell>
        <mxCell id="FM3JSG5P8la8H75g2BcZ-250" style="edgeStyle=orthogonalEdgeStyle;rounded=0;orthogonalLoop=1;jettySize=auto;html=1;entryX=0.5;entryY=0;entryDx=0;entryDy=0;" edge="1" parent="1" source="FM3JSG5P8la8H75g2BcZ-238" target="FM3JSG5P8la8H75g2BcZ-249">
          <mxGeometry relative="1" as="geometry" />
        </mxCell>
        <mxCell id="FM3JSG5P8la8H75g2BcZ-251" value="ใช่" style="edgeLabel;html=1;align=center;verticalAlign=middle;resizable=0;points=[];" vertex="1" connectable="0" parent="FM3JSG5P8la8H75g2BcZ-250">
          <mxGeometry x="-0.6182" y="-1" relative="1" as="geometry">
            <mxPoint as="offset" />
          </mxGeometry>
        </mxCell>
        <mxCell id="FM3JSG5P8la8H75g2BcZ-252" style="edgeStyle=orthogonalEdgeStyle;rounded=0;orthogonalLoop=1;jettySize=auto;html=1;" edge="1" parent="1" source="FM3JSG5P8la8H75g2BcZ-253" target="FM3JSG5P8la8H75g2BcZ-248">
          <mxGeometry relative="1" as="geometry" />
        </mxCell>
        <mxCell id="FM3JSG5P8la8H75g2BcZ-253" value="บันทึกข้อมูล&lt;span style=&quot;font-size: medium; text-align: start;&quot;&gt;&lt;/span&gt;" style="rounded=1;whiteSpace=wrap;html=1;" vertex="1" parent="1">
          <mxGeometry x="137.07000000000002" y="1377.5" width="77.5" height="40" as="geometry" />
        </mxCell>
        <mxCell id="FM3JSG5P8la8H75g2BcZ-254" style="edgeStyle=orthogonalEdgeStyle;rounded=0;orthogonalLoop=1;jettySize=auto;html=1;entryX=1;entryY=0.5;entryDx=0;entryDy=0;" edge="1" parent="1" source="FM3JSG5P8la8H75g2BcZ-249" target="FM3JSG5P8la8H75g2BcZ-253">
          <mxGeometry relative="1" as="geometry" />
        </mxCell>
        <mxCell id="FM3JSG5P8la8H75g2BcZ-255" style="edgeStyle=orthogonalEdgeStyle;rounded=0;orthogonalLoop=1;jettySize=auto;html=1;" edge="1" parent="1" source="FM3JSG5P8la8H75g2BcZ-256" target="FM3JSG5P8la8H75g2BcZ-232">
          <mxGeometry relative="1" as="geometry">
            <Array as="points">
              <mxPoint x="253.62" y="1840" />
              <mxPoint x="403.61999999999995" y="1840" />
            </Array>
          </mxGeometry>
        </mxCell>
        <mxCell id="FM3JSG5P8la8H75g2BcZ-256" value="3" style="ellipse;whiteSpace=wrap;html=1;aspect=fixed;" vertex="1" parent="1">
          <mxGeometry x="228.72000000000003" y="1632.5" width="50" height="50" as="geometry" />
        </mxCell>
        <mxCell id="FM3JSG5P8la8H75g2BcZ-257" style="edgeStyle=orthogonalEdgeStyle;rounded=0;orthogonalLoop=1;jettySize=auto;html=1;entryX=0;entryY=0.5;entryDx=0;entryDy=0;" edge="1" parent="1" source="FM3JSG5P8la8H75g2BcZ-241" target="FM3JSG5P8la8H75g2BcZ-256">
          <mxGeometry relative="1" as="geometry">
            <Array as="points">
              <mxPoint x="85" y="1322.5" />
              <mxPoint x="85" y="1577.5" />
              <mxPoint x="145" y="1577.5" />
              <mxPoint x="145" y="1657.5" />
            </Array>
          </mxGeometry>
        </mxCell>
        <mxCell id="FM3JSG5P8la8H75g2BcZ-258" style="edgeStyle=orthogonalEdgeStyle;rounded=0;orthogonalLoop=1;jettySize=auto;html=1;entryX=0;entryY=0;entryDx=0;entryDy=0;" edge="1" parent="1" source="FM3JSG5P8la8H75g2BcZ-248" target="FM3JSG5P8la8H75g2BcZ-256">
          <mxGeometry relative="1" as="geometry" />
        </mxCell>
        <mxCell id="FM3JSG5P8la8H75g2BcZ-259" style="edgeStyle=orthogonalEdgeStyle;rounded=0;orthogonalLoop=1;jettySize=auto;html=1;" edge="1" parent="1" source="FM3JSG5P8la8H75g2BcZ-260">
          <mxGeometry relative="1" as="geometry">
            <mxPoint x="408.61999999999995" y="1500.0000000000002" as="targetPoint" />
          </mxGeometry>
        </mxCell>
        <mxCell id="FM3JSG5P8la8H75g2BcZ-260" value="อัปโหลดไฟล์" style="rounded=1;whiteSpace=wrap;html=1;" vertex="1" parent="1">
          <mxGeometry x="308.71999999999997" y="1430" width="110" height="42" as="geometry" />
        </mxCell>
        <mxCell id="FM3JSG5P8la8H75g2BcZ-261" value="" style="group" vertex="1" connectable="0" parent="1">
          <mxGeometry x="360.49999999999994" y="1610" width="96.25" height="177.5" as="geometry" />
        </mxCell>
        <mxCell id="FM3JSG5P8la8H75g2BcZ-262" value="แก้ไขรายละเอียดในหัวข้อการกำกับดูแลกิจการ&lt;span style=&quot;font-size: medium; text-align: start;&quot;&gt;&lt;/span&gt;" style="rounded=1;whiteSpace=wrap;html=1;" vertex="1" parent="FM3JSG5P8la8H75g2BcZ-261">
          <mxGeometry x="-5" width="106.25" height="42.5" as="geometry" />
        </mxCell>
        <mxCell id="FM3JSG5P8la8H75g2BcZ-263" value="สร้างข้อมูล ActivityLog&lt;span style=&quot;font-size: medium; text-align: start;&quot;&gt;&lt;/span&gt;" style="rounded=1;whiteSpace=wrap;html=1;" vertex="1" parent="FM3JSG5P8la8H75g2BcZ-261">
          <mxGeometry x="6.25" y="67.5" width="77.5" height="40" as="geometry" />
        </mxCell>
        <mxCell id="FM3JSG5P8la8H75g2BcZ-264" value="" style="edgeStyle=orthogonalEdgeStyle;rounded=0;orthogonalLoop=1;jettySize=auto;html=1;entryX=0.543;entryY=-0.009;entryDx=0;entryDy=0;entryPerimeter=0;" edge="1" parent="FM3JSG5P8la8H75g2BcZ-261" source="FM3JSG5P8la8H75g2BcZ-262" target="FM3JSG5P8la8H75g2BcZ-263">
          <mxGeometry relative="1" as="geometry" />
        </mxCell>
        <mxCell id="FM3JSG5P8la8H75g2BcZ-265" value="บันทึกข้อมูล&lt;span style=&quot;font-size: medium; text-align: start;&quot;&gt;&lt;/span&gt;" style="rounded=1;whiteSpace=wrap;html=1;" vertex="1" parent="FM3JSG5P8la8H75g2BcZ-261">
          <mxGeometry x="6.25" y="137.5" width="77.5" height="40" as="geometry" />
        </mxCell>
        <mxCell id="FM3JSG5P8la8H75g2BcZ-266" value="" style="edgeStyle=orthogonalEdgeStyle;rounded=0;orthogonalLoop=1;jettySize=auto;html=1;" edge="1" parent="FM3JSG5P8la8H75g2BcZ-261" source="FM3JSG5P8la8H75g2BcZ-263" target="FM3JSG5P8la8H75g2BcZ-265">
          <mxGeometry relative="1" as="geometry" />
        </mxCell>
        <mxCell id="FM3JSG5P8la8H75g2BcZ-267" style="edgeStyle=orthogonalEdgeStyle;rounded=0;orthogonalLoop=1;jettySize=auto;html=1;entryX=0;entryY=1;entryDx=0;entryDy=0;" edge="1" parent="1" source="FM3JSG5P8la8H75g2BcZ-271" target="FM3JSG5P8la8H75g2BcZ-229">
          <mxGeometry relative="1" as="geometry">
            <Array as="points">
              <mxPoint x="453.61999999999995" y="1533" />
              <mxPoint x="453.61999999999995" y="1220" />
              <mxPoint x="462.61999999999995" y="1220" />
            </Array>
          </mxGeometry>
        </mxCell>
        <mxCell id="FM3JSG5P8la8H75g2BcZ-268" value="ใช่" style="edgeLabel;html=1;align=center;verticalAlign=middle;resizable=0;points=[];" vertex="1" connectable="0" parent="FM3JSG5P8la8H75g2BcZ-267">
          <mxGeometry x="-0.8996" relative="1" as="geometry">
            <mxPoint as="offset" />
          </mxGeometry>
        </mxCell>
        <mxCell id="FM3JSG5P8la8H75g2BcZ-269" style="edgeStyle=orthogonalEdgeStyle;rounded=0;orthogonalLoop=1;jettySize=auto;html=1;" edge="1" parent="1" source="FM3JSG5P8la8H75g2BcZ-271" target="FM3JSG5P8la8H75g2BcZ-262">
          <mxGeometry relative="1" as="geometry" />
        </mxCell>
        <mxCell id="FM3JSG5P8la8H75g2BcZ-270" value="ไม่" style="edgeLabel;html=1;align=center;verticalAlign=middle;resizable=0;points=[];" vertex="1" connectable="0" parent="FM3JSG5P8la8H75g2BcZ-269">
          <mxGeometry x="-0.1659" relative="1" as="geometry">
            <mxPoint y="2" as="offset" />
          </mxGeometry>
        </mxCell>
        <mxCell id="FM3JSG5P8la8H75g2BcZ-271" value="มีไฟล&lt;br&gt;รูปภาพอีกไหม ?" style="rhombus;whiteSpace=wrap;html=1;" vertex="1" parent="1">
          <mxGeometry x="376.11999999999995" y="1500" width="65" height="65" as="geometry" />
        </mxCell>
        <mxCell id="FM3JSG5P8la8H75g2BcZ-272" value="" style="edgeStyle=orthogonalEdgeStyle;rounded=0;orthogonalLoop=1;jettySize=auto;html=1;" edge="1" parent="1" source="FM3JSG5P8la8H75g2BcZ-265" target="FM3JSG5P8la8H75g2BcZ-232">
          <mxGeometry relative="1" as="geometry" />
        </mxCell>
        <mxCell id="FM3JSG5P8la8H75g2BcZ-273" value="" style="edgeStyle=orthogonalEdgeStyle;rounded=0;orthogonalLoop=1;jettySize=auto;html=1;entryX=0.5;entryY=0;entryDx=0;entryDy=0;" edge="1" parent="1" source="FM3JSG5P8la8H75g2BcZ-276" target="FM3JSG5P8la8H75g2BcZ-286">
          <mxGeometry relative="1" as="geometry">
            <mxPoint x="477" y="870" as="targetPoint" />
          </mxGeometry>
        </mxCell>
        <mxCell id="FM3JSG5P8la8H75g2BcZ-274" value="ใช่" style="edgeLabel;html=1;align=center;verticalAlign=middle;resizable=0;points=[];" vertex="1" connectable="0" parent="FM3JSG5P8la8H75g2BcZ-273">
          <mxGeometry x="-0.3989" y="-1" relative="1" as="geometry">
            <mxPoint y="2" as="offset" />
          </mxGeometry>
        </mxCell>
        <mxCell id="FM3JSG5P8la8H75g2BcZ-275" value="ดึงหัวข้อการกำกับดูแลกิจการ" style="rounded=1;whiteSpace=wrap;html=1;" vertex="1" parent="1">
          <mxGeometry x="415.75" y="680" width="120" height="40" as="geometry" />
        </mxCell>
        <mxCell id="FM3JSG5P8la8H75g2BcZ-276" value="มี?" style="rhombus;whiteSpace=wrap;html=1;" vertex="1" parent="1">
          <mxGeometry x="451.5" y="750" width="48.5" height="40" as="geometry" />
        </mxCell>
        <mxCell id="FM3JSG5P8la8H75g2BcZ-277" value="" style="edgeStyle=orthogonalEdgeStyle;rounded=0;orthogonalLoop=1;jettySize=auto;html=1;" edge="1" parent="1" source="FM3JSG5P8la8H75g2BcZ-275" target="FM3JSG5P8la8H75g2BcZ-276">
          <mxGeometry relative="1" as="geometry" />
        </mxCell>
        <mxCell id="FM3JSG5P8la8H75g2BcZ-278" style="edgeStyle=orthogonalEdgeStyle;rounded=0;orthogonalLoop=1;jettySize=auto;html=1;" edge="1" parent="1" source="FM3JSG5P8la8H75g2BcZ-279" target="FM3JSG5P8la8H75g2BcZ-161">
          <mxGeometry relative="1" as="geometry">
            <mxPoint x="276.75" y="682" as="targetPoint" />
            <Array as="points">
              <mxPoint x="170" y="750" />
              <mxPoint x="233" y="750" />
            </Array>
          </mxGeometry>
        </mxCell>
        <mxCell id="FM3JSG5P8la8H75g2BcZ-279" value="return Error code 123" style="rounded=1;whiteSpace=wrap;html=1;" vertex="1" parent="1">
          <mxGeometry x="115" y="780" width="80" height="50" as="geometry" />
        </mxCell>
        <mxCell id="FM3JSG5P8la8H75g2BcZ-280" style="edgeStyle=orthogonalEdgeStyle;rounded=0;orthogonalLoop=1;jettySize=auto;html=1;" edge="1" parent="1" source="FM3JSG5P8la8H75g2BcZ-283" target="FM3JSG5P8la8H75g2BcZ-279">
          <mxGeometry relative="1" as="geometry" />
        </mxCell>
        <mxCell id="FM3JSG5P8la8H75g2BcZ-281" value="" style="edgeStyle=orthogonalEdgeStyle;rounded=0;orthogonalLoop=1;jettySize=auto;html=1;" edge="1" parent="1" source="FM3JSG5P8la8H75g2BcZ-276" target="FM3JSG5P8la8H75g2BcZ-283">
          <mxGeometry relative="1" as="geometry">
            <mxPoint x="451.75" y="770" as="sourcePoint" />
            <mxPoint x="303.75" y="755" as="targetPoint" />
          </mxGeometry>
        </mxCell>
        <mxCell id="FM3JSG5P8la8H75g2BcZ-282" value="ไม่" style="edgeLabel;html=1;align=center;verticalAlign=middle;resizable=0;points=[];" vertex="1" connectable="0" parent="FM3JSG5P8la8H75g2BcZ-281">
          <mxGeometry x="-0.7326" relative="1" as="geometry">
            <mxPoint as="offset" />
          </mxGeometry>
        </mxCell>
        <mxCell id="FM3JSG5P8la8H75g2BcZ-283" value="สร้างข้อมูล ActivityLog&lt;span style=&quot;font-size: medium; text-align: start;&quot;&gt;&lt;/span&gt;" style="rounded=1;whiteSpace=wrap;html=1;" vertex="1" parent="1">
          <mxGeometry x="338.25" y="790" width="77.5" height="40" as="geometry" />
        </mxCell>
        <mxCell id="FM3JSG5P8la8H75g2BcZ-284" value="บันทึกข้อมูล&lt;span style=&quot;font-size: medium; text-align: start;&quot;&gt;&lt;/span&gt;" style="rounded=1;whiteSpace=wrap;html=1;" vertex="1" parent="1">
          <mxGeometry x="238.75" y="790" width="77.5" height="40" as="geometry" />
        </mxCell>
        <mxCell id="FM3JSG5P8la8H75g2BcZ-302" style="edgeStyle=orthogonalEdgeStyle;rounded=0;orthogonalLoop=1;jettySize=auto;html=1;" edge="1" parent="1" source="FM3JSG5P8la8H75g2BcZ-286" target="FM3JSG5P8la8H75g2BcZ-301">
          <mxGeometry relative="1" as="geometry" />
        </mxCell>
        <mxCell id="FM3JSG5P8la8H75g2BcZ-286" value="Active &lt;br&gt;?" style="rhombus;whiteSpace=wrap;html=1;" vertex="1" parent="1">
          <mxGeometry x="445.55" y="850" width="58.5" height="50" as="geometry" />
        </mxCell>
        <mxCell id="FM3JSG5P8la8H75g2BcZ-293" style="edgeStyle=orthogonalEdgeStyle;rounded=0;orthogonalLoop=1;jettySize=auto;html=1;entryX=0;entryY=1;entryDx=0;entryDy=0;" edge="1" parent="1" source="FM3JSG5P8la8H75g2BcZ-287" target="FM3JSG5P8la8H75g2BcZ-161">
          <mxGeometry relative="1" as="geometry">
            <mxPoint x="60" y="720" as="targetPoint" />
            <Array as="points">
              <mxPoint x="80" y="915" />
              <mxPoint x="80" y="720" />
              <mxPoint x="215" y="720" />
            </Array>
          </mxGeometry>
        </mxCell>
        <mxCell id="FM3JSG5P8la8H75g2BcZ-287" value="return Error code 124" style="rounded=1;whiteSpace=wrap;html=1;" vertex="1" parent="1">
          <mxGeometry x="115" y="890" width="80" height="50" as="geometry" />
        </mxCell>
        <mxCell id="FM3JSG5P8la8H75g2BcZ-288" style="edgeStyle=orthogonalEdgeStyle;rounded=0;orthogonalLoop=1;jettySize=auto;html=1;" edge="1" parent="1" source="FM3JSG5P8la8H75g2BcZ-291" target="FM3JSG5P8la8H75g2BcZ-287">
          <mxGeometry relative="1" as="geometry" />
        </mxCell>
        <mxCell id="FM3JSG5P8la8H75g2BcZ-289" value="" style="edgeStyle=orthogonalEdgeStyle;rounded=0;orthogonalLoop=1;jettySize=auto;html=1;" edge="1" parent="1" source="FM3JSG5P8la8H75g2BcZ-286" target="FM3JSG5P8la8H75g2BcZ-291">
          <mxGeometry relative="1" as="geometry">
            <mxPoint x="451.75" y="880" as="sourcePoint" />
            <mxPoint x="303.75" y="865" as="targetPoint" />
          </mxGeometry>
        </mxCell>
        <mxCell id="FM3JSG5P8la8H75g2BcZ-290" value="ไม่" style="edgeLabel;html=1;align=center;verticalAlign=middle;resizable=0;points=[];" vertex="1" connectable="0" parent="FM3JSG5P8la8H75g2BcZ-289">
          <mxGeometry x="-0.7326" relative="1" as="geometry">
            <mxPoint as="offset" />
          </mxGeometry>
        </mxCell>
        <mxCell id="FM3JSG5P8la8H75g2BcZ-291" value="สร้างข้อมูล ActivityLog&lt;span style=&quot;font-size: medium; text-align: start;&quot;&gt;&lt;/span&gt;" style="rounded=1;whiteSpace=wrap;html=1;" vertex="1" parent="1">
          <mxGeometry x="338.25" y="900" width="77.5" height="40" as="geometry" />
        </mxCell>
        <mxCell id="FM3JSG5P8la8H75g2BcZ-292" value="บันทึกข้อมูล&lt;span style=&quot;font-size: medium; text-align: start;&quot;&gt;&lt;/span&gt;" style="rounded=1;whiteSpace=wrap;html=1;" vertex="1" parent="1">
          <mxGeometry x="238.75" y="900" width="77.5" height="40" as="geometry" />
        </mxCell>
        <mxCell id="FM3JSG5P8la8H75g2BcZ-308" style="edgeStyle=orthogonalEdgeStyle;rounded=0;orthogonalLoop=1;jettySize=auto;html=1;" edge="1" parent="1" source="FM3JSG5P8la8H75g2BcZ-294" target="FM3JSG5P8la8H75g2BcZ-229">
          <mxGeometry relative="1" as="geometry" />
        </mxCell>
        <mxCell id="FM3JSG5P8la8H75g2BcZ-294" value="มี?" style="rhombus;whiteSpace=wrap;html=1;" vertex="1" parent="1">
          <mxGeometry x="445.55" y="1030" width="58.5" height="50" as="geometry" />
        </mxCell>
        <mxCell id="FM3JSG5P8la8H75g2BcZ-295" value="return Error code 125" style="rounded=1;whiteSpace=wrap;html=1;" vertex="1" parent="1">
          <mxGeometry x="115" y="1070" width="80" height="50" as="geometry" />
        </mxCell>
        <mxCell id="FM3JSG5P8la8H75g2BcZ-296" style="edgeStyle=orthogonalEdgeStyle;rounded=0;orthogonalLoop=1;jettySize=auto;html=1;" edge="1" parent="1" source="FM3JSG5P8la8H75g2BcZ-299" target="FM3JSG5P8la8H75g2BcZ-295">
          <mxGeometry relative="1" as="geometry" />
        </mxCell>
        <mxCell id="FM3JSG5P8la8H75g2BcZ-297" value="" style="edgeStyle=orthogonalEdgeStyle;rounded=0;orthogonalLoop=1;jettySize=auto;html=1;" edge="1" parent="1" source="FM3JSG5P8la8H75g2BcZ-294" target="FM3JSG5P8la8H75g2BcZ-299">
          <mxGeometry relative="1" as="geometry">
            <mxPoint x="451.75" y="1060" as="sourcePoint" />
            <mxPoint x="303.75" y="1045" as="targetPoint" />
          </mxGeometry>
        </mxCell>
        <mxCell id="FM3JSG5P8la8H75g2BcZ-298" value="ไม่" style="edgeLabel;html=1;align=center;verticalAlign=middle;resizable=0;points=[];" vertex="1" connectable="0" parent="FM3JSG5P8la8H75g2BcZ-297">
          <mxGeometry x="-0.7326" relative="1" as="geometry">
            <mxPoint as="offset" />
          </mxGeometry>
        </mxCell>
        <mxCell id="FM3JSG5P8la8H75g2BcZ-299" value="สร้างข้อมูล ActivityLog&lt;span style=&quot;font-size: medium; text-align: start;&quot;&gt;&lt;/span&gt;" style="rounded=1;whiteSpace=wrap;html=1;" vertex="1" parent="1">
          <mxGeometry x="338.25" y="1080" width="77.5" height="40" as="geometry" />
        </mxCell>
        <mxCell id="FM3JSG5P8la8H75g2BcZ-300" value="บันทึกข้อมูล&lt;span style=&quot;font-size: medium; text-align: start;&quot;&gt;&lt;/span&gt;" style="rounded=1;whiteSpace=wrap;html=1;" vertex="1" parent="1">
          <mxGeometry x="238.75" y="1080" width="77.5" height="40" as="geometry" />
        </mxCell>
        <mxCell id="FM3JSG5P8la8H75g2BcZ-304" style="edgeStyle=orthogonalEdgeStyle;rounded=0;orthogonalLoop=1;jettySize=auto;html=1;" edge="1" parent="1" source="FM3JSG5P8la8H75g2BcZ-301" target="FM3JSG5P8la8H75g2BcZ-294">
          <mxGeometry relative="1" as="geometry" />
        </mxCell>
        <mxCell id="FM3JSG5P8la8H75g2BcZ-301" value="ดึงรายละเอียดหัวข้อการกำกับดูแลกิจการ" style="rounded=1;whiteSpace=wrap;html=1;" vertex="1" parent="1">
          <mxGeometry x="414.8" y="960" width="120" height="40" as="geometry" />
        </mxCell>
        <mxCell id="FM3JSG5P8la8H75g2BcZ-306" value="" style="endArrow=none;html=1;rounded=0;" edge="1" parent="1">
          <mxGeometry width="50" height="50" relative="1" as="geometry">
            <mxPoint x="115" y="1100" as="sourcePoint" />
            <mxPoint x="80" y="910" as="targetPoint" />
            <Array as="points">
              <mxPoint x="80" y="1100" />
            </Array>
          </mxGeometry>
        </mxCell>
      </root>
    </mxGraphModel>
  </diagram>
</mxfile>
